<svg id="Layer_1" data-name="Layer 1" xmlns="http://www.w3.org/2000/svg" viewBox="0 0 149.9 126.7"><defs><style>.cls-1{fill:#500000;}.cls-2{fill:#fff;}.cls-3{fill:#a6a6a6;}</style></defs><title>nursing-logo-stacked-maroon</title><rect class="cls-1" x="59.39" y="29.04" width="31.51" height="31.76"/><polygon class="cls-2" points="86.68 41.63 84.31 41.63 84.23 41.63 84.14 41.8 82.45 45.35 80.77 41.8 80.68 41.63 80.51 41.63 78.31 41.63 78.06 41.63 78.06 41.88 78.06 43.07 78.06 43.32 78.31 43.32 78.65 43.32 78.65 48.39 78.23 48.39 78.06 48.39 78.06 48.56 78.06 49.74 78.06 49.99 78.23 49.99 80.77 49.99 81.02 49.99 81.02 49.74 81.02 48.56 81.02 48.39 80.77 48.39 80.34 48.39 80.34 44.76 82.29 48.64 82.45 49.06 82.62 48.64 84.57 44.76 84.57 48.39 84.14 48.39 83.89 48.39 83.89 48.56 83.89 49.74 83.89 49.99 84.14 49.99 86.68 49.99 86.85 49.99 86.85 49.74 86.85 48.56 86.85 48.39 86.68 48.39 86.26 48.39 86.26 43.32 86.68 43.32 86.85 43.32 86.85 43.07 86.85 41.88 86.85 41.63 86.68 41.63"/><path class="cls-2" d="M71.89,48.39h-.67L69,43.32h.51V41.63H65.9v1.69h.5l-2.19,5.07h-.85v1.69h3.3V48.39h-.51l.34-.85h2.62l.34.85h-.51v1.69h3.29V48.39Zm-3.54-2.54H67.08l.59-1.43Z"/><polygon class="cls-2" points="83.97 35.3 66.15 35.3 65.9 35.3 65.9 35.55 65.9 40.28 65.9 40.53 66.15 40.53 69.28 40.53 69.53 40.53 69.53 40.28 69.53 38.59 73.33 38.59 73.33 51.09 71.56 51.09 71.3 51.09 71.3 51.35 71.3 54.39 71.3 54.64 71.56 54.64 78.65 54.64 78.91 54.64 78.91 54.39 78.91 51.35 78.91 51.09 78.65 51.09 76.88 51.09 76.88 38.59 80.68 38.59 80.68 40.28 80.68 40.53 80.85 40.53 83.97 40.53 84.23 40.53 84.23 40.28 84.23 35.55 84.23 35.3 83.97 35.3"/><polygon class="cls-3" points="77.39 52.53 78.15 51.77 78.15 53.88 77.39 53.2 77.39 52.53"/><polygon class="cls-3" points="76.12 51.85 75.36 52.61 75.36 37.07 76.12 37.83 76.12 51.85"/><polygon class="cls-3" points="67.42 36.81 66.66 36.05 83.13 36.05 82.12 36.81 67.42 36.81"/><polygon class="cls-3" points="83.55 39.86 82.79 39.1 82.79 37.24 83.55 36.48 83.55 39.86"/><path class="cls-1" d="M92.17,60.13a.59.59,0,1,1,.59.59C92.42,60.81,92.17,60.47,92.17,60.13Zm1.1,0a.51.51,0,0,0-1,0,.55.55,0,0,0,.51.51A.45.45,0,0,0,93.27,60.13Zm-.68-.34h.26c.16,0,.25.09.25.17a.18.18,0,0,1-.17.17l.17.34h-.17l-.17-.34h-.08v.34h-.17v-.68Zm.09.34h.08c.09,0,.17,0,.17-.08s-.08-.09-.17-.09h-.08Z"/><path class="cls-2" d="M35.32,77.11h-.76V73H33.12V72.3h3.63V73H35.32Z"/><path class="cls-2" d="M40.47,77.11h-2.7V72.3h2.7V73H38.53v1.35h1.85V75H38.53v1.52h1.94Z"/><path class="cls-2" d="M45.45,77.11h-.93l-1.18-1.94-1.18,1.94h-.85l1.61-2.53L41.4,72.3h.84l1.1,1.86,1.1-1.86h.84l-1.52,2.36Z"/><path class="cls-2" d="M49.42,77.11l-.5-1.35H47.06l-.51,1.35h-.84l1.77-4.81h.85l1.77,4.81Zm-.67-2-.42-1.35a1.64,1.64,0,0,0-.17-.42.87.87,0,0,1-.09-.42c-.08.25-.17.59-.25.93l-.51,1.26Z"/><path class="cls-2" d="M54,75.84a1.21,1.21,0,0,1-.51,1,2.07,2.07,0,0,1-1.27.34,3.19,3.19,0,0,1-1.35-.26v-.76l.68.26a2.16,2.16,0,0,0,.67.08,1.27,1.27,0,0,0,.68-.17.5.5,0,0,0,.25-.51.64.64,0,0,0-.17-.42,9,9,0,0,0-.84-.42,2.87,2.87,0,0,1-.93-.59,1.43,1.43,0,0,1-.26-.85,1.08,1.08,0,0,1,.43-.93,1.65,1.65,0,0,1,1.18-.33,2.69,2.69,0,0,1,1.35.33l-.17.51a3.25,3.25,0,0,0-1.18-.25,1.17,1.17,0,0,0-.59.17c-.17.08-.17.25-.17.42a.55.55,0,0,0,.08.34l.26.25a3.78,3.78,0,0,0,.67.34,3,3,0,0,1,.76.42,1.4,1.4,0,0,1,.34.42A1.19,1.19,0,0,1,54,75.84Z"/><path class="cls-2" d="M60.41,77.11l-.51-1.35H58l-.51,1.35h-.84l1.77-4.81h.85l1.77,4.81Zm-.68-2-.42-1.35a1.64,1.64,0,0,0-.17-.42.87.87,0,0,1-.09-.42c-.08.25-.16.59-.25.93l-.51,1.26Z"/><path class="cls-2" d="M61.84,75.84a2.68,2.68,0,0,1,.17-.76,3,3,0,0,1,.76-.67,6.4,6.4,0,0,1-.42-.59,1,1,0,0,1-.09-.51.83.83,0,0,1,.34-.76,1.71,1.71,0,0,1,.93-.25,1.51,1.51,0,0,1,.93.25.83.83,0,0,1,.34.76,1,1,0,0,1-.25.68,3,3,0,0,1-.77.59l1.27,1.1a2.82,2.82,0,0,0,.42-1h.76a4.1,4.1,0,0,1-.76,1.52l1,.93h-1l-.42-.42a2.74,2.74,0,0,1-.67.42,2.42,2.42,0,0,1-.85.17,1.61,1.61,0,0,1-1.18-.34A1.48,1.48,0,0,1,61.84,75.84Zm1.69.68a1.35,1.35,0,0,0,1-.34l-1.27-1.26c-.26.16-.42.25-.51.42s-.17.25-.17.42a.53.53,0,0,0,.26.51A1.1,1.1,0,0,0,63.53,76.52ZM63,73.31a.71.71,0,0,0,.09.42,4.65,4.65,0,0,0,.34.43c.25-.17.42-.26.5-.43a.6.6,0,0,0,.17-.42A.43.43,0,0,0,64,73a.6.6,0,0,0-.84,0A.5.5,0,0,0,63,73.31Z"/><path class="cls-2" d="M69.61,77.11l-1.43-4h0c0,.59.08,1.18.08,1.69v2.36h-.67V72.3h1.09L70,76.1h0l1.35-3.8h1.1v4.81h-.76v-4h0L70.29,77.2h-.68Z"/><path class="cls-2" d="M80,72.3v3.12a1.68,1.68,0,0,1-.25.93,1.18,1.18,0,0,1-.67.59,2,2,0,0,1-1,.26,2,2,0,0,1-1.43-.51,1.72,1.72,0,0,1-.51-1.27V72.3h.76v3a1.11,1.11,0,0,0,.25.84,1.27,1.27,0,0,0,.85.26c.76,0,1.1-.43,1.1-1.19v-3Z"/><path class="cls-2" d="M85.58,77.11h-.93l-2.36-3.88h0v.25c0,.42.08.76.08,1.1v2.53h-.68V72.3h.93L85,76.1h0V72.21h.76v4.9Z"/><path class="cls-2" d="M87.19,77.11V72.3H88v4.81Z"/><path class="cls-2" d="M92.34,72.3h.84l-1.69,4.81h-.84L89,72.3h.84l1,3c.08.17.08.34.17.59a1.55,1.55,0,0,1,.08.51,2.44,2.44,0,0,1,.17-.6c.09-.25.09-.42.17-.5Z"/><path class="cls-2" d="M96.9,77.11H94.2V72.3h2.7V73H95v1.35h1.86V75H95v1.52H96.9Z"/><path class="cls-2" d="M99,75.17v1.94h-.76V72.3H99.6a2,2,0,0,1,1.36.33,1.5,1.5,0,0,1,.42,1.1,1.35,1.35,0,0,1-.93,1.27l1.35,2.11h-.93l-1.18-1.94Zm0-.59h.51a1.45,1.45,0,0,0,.76-.17.76.76,0,0,0,.25-.59.64.64,0,0,0-.25-.59,1.73,1.73,0,0,0-.84-.17h-.51v1.52Z"/><path class="cls-2" d="M105.69,75.84a1.21,1.21,0,0,1-.51,1,2.07,2.07,0,0,1-1.27.34,3.22,3.22,0,0,1-1.35-.26v-.76l.68.26a2.16,2.16,0,0,0,.67.08,1.27,1.27,0,0,0,.68-.17.5.5,0,0,0,.25-.51.64.64,0,0,0-.17-.42,9,9,0,0,0-.84-.42,3,3,0,0,1-.93-.59,1.42,1.42,0,0,1-.25-.85,1.08,1.08,0,0,1,.42-.93,1.65,1.65,0,0,1,1.18-.33,2.69,2.69,0,0,1,1.35.33l-.25.68a3.29,3.29,0,0,0-1.18-.25,1.18,1.18,0,0,0-.6.17c-.16.08-.16.25-.16.42a.55.55,0,0,0,.08.34l.25.25a5.74,5.74,0,0,0,.68.34,3,3,0,0,1,.76.42,1.57,1.57,0,0,1,.34.42C105.69,75.42,105.69,75.59,105.69,75.84Z"/><path class="cls-2" d="M107,77.11V72.3h.76v4.81Z"/><path class="cls-2" d="M111,77.11h-.76V73h-1.44V72.3h3.63V73H111Z"/><path class="cls-2" d="M114.89,74.49l1.19-2.19h.84l-1.6,3v1.86h-.76V75.25l-1.61-3h.85Z"/><path class="cls-2" d="M22.81,84a3.08,3.08,0,0,0-2.53,1.1A4,4,0,0,0,19.35,88a4.59,4.59,0,0,0,.93,3,2.93,2.93,0,0,0,2.53,1,7.6,7.6,0,0,0,2.28-.34v.93a7.22,7.22,0,0,1-2.45.34,4.19,4.19,0,0,1-3.29-1.27,5.43,5.43,0,0,1-1.18-3.71,5.23,5.23,0,0,1,.59-2.62,3.87,3.87,0,0,1,1.6-1.69A4.52,4.52,0,0,1,22.81,83a5.12,5.12,0,0,1,2.62.59l-.51.93A4.31,4.31,0,0,0,22.81,84Z"/><path class="cls-2" d="M33.29,89.19A4.11,4.11,0,0,1,32.36,92a3.11,3.11,0,0,1-2.45,1,3.61,3.61,0,0,1-1.69-.42A2.8,2.8,0,0,1,27,91.3a4.64,4.64,0,0,1-.43-2,4.07,4.07,0,0,1,.85-2.79,3.11,3.11,0,0,1,2.45-1,3.24,3.24,0,0,1,2.45,1A3.65,3.65,0,0,1,33.29,89.19Zm-5.49,0a3.14,3.14,0,0,0,.59,2.11,2,2,0,0,0,1.6.76,1.85,1.85,0,0,0,1.61-.76,3.65,3.65,0,0,0,.59-2.11,3.16,3.16,0,0,0-.59-2.11A1.89,1.89,0,0,0,30,86.4a2,2,0,0,0-1.6.68A3.47,3.47,0,0,0,27.8,89.19Z"/><path class="cls-2" d="M36.33,92.82h-1.1V82.6h1.1Z"/><path class="cls-2" d="M39.79,92.82h-1.1V82.6h1.1Z"/><path class="cls-2" d="M45.12,93a3.18,3.18,0,0,1-2.54-1,3.89,3.89,0,0,1-.93-2.7,4,4,0,0,1,.85-2.79,2.87,2.87,0,0,1,2.28-1,2.62,2.62,0,0,1,2.11.92,3.48,3.48,0,0,1,.76,2.37v.68h-5a2.71,2.71,0,0,0,.67,1.94,2.35,2.35,0,0,0,1.69.67,5.53,5.53,0,0,0,2.28-.5v1a8.34,8.34,0,0,1-1.1.34A4.28,4.28,0,0,1,45.12,93Zm-.26-6.59a1.56,1.56,0,0,0-1.35.6,3,3,0,0,0-.59,1.6h3.8A3,3,0,0,0,46.3,87,1.74,1.74,0,0,0,44.86,86.4Z"/><path class="cls-2" d="M55.59,85.64v.68l-1.35.17a4.91,4.91,0,0,1,.34.59,2.61,2.61,0,0,1,.17.85A2.13,2.13,0,0,1,54,89.61a3.07,3.07,0,0,1-2,.68,1.3,1.3,0,0,1-.59-.08,1,1,0,0,0-.68.93.49.49,0,0,0,.25.42,1.91,1.91,0,0,0,.85.17h1.27a2.8,2.8,0,0,1,1.77.5,1.76,1.76,0,0,1,.59,1.44,2.25,2.25,0,0,1-.93,1.86,5.08,5.08,0,0,1-2.79.59,4,4,0,0,1-2.19-.51,1.7,1.7,0,0,1-.76-1.52,2,2,0,0,1,.42-1.18,2.31,2.31,0,0,1,1.18-.68,1.89,1.89,0,0,1-.5-.42.8.8,0,0,1-.17-.59,1.55,1.55,0,0,1,.17-.68,1.6,1.6,0,0,1,.67-.59,2.67,2.67,0,0,1-.93-.76,2.05,2.05,0,0,1-.34-1.26,2.63,2.63,0,0,1,.68-1.86,2.89,2.89,0,0,1,2-.68,3.73,3.73,0,0,1,1,.17h2.62Zm-5.74,8.45a1,1,0,0,0,.5.93,2.46,2.46,0,0,0,1.44.34,4.1,4.1,0,0,0,2-.42,1.33,1.33,0,0,0,.67-1.1.89.89,0,0,0-.34-.85,2.49,2.49,0,0,0-1.35-.25H51.45a1.74,1.74,0,0,0-1.18.34A1,1,0,0,0,49.85,94.09Zm.59-6.16a1.7,1.7,0,0,0,.42,1.18,1.68,1.68,0,0,0,1.18.42c1.1,0,1.61-.51,1.61-1.52A1.4,1.4,0,0,0,52,86.4a1.64,1.64,0,0,0-1.18.43A1.33,1.33,0,0,0,50.44,87.93Z"/><path class="cls-2" d="M60.15,93a3.16,3.16,0,0,1-2.53-1,3.89,3.89,0,0,1-.93-2.7,4.07,4.07,0,0,1,.84-2.79,2.89,2.89,0,0,1,2.28-1,2.64,2.64,0,0,1,2.12.92,3.53,3.53,0,0,1,.76,2.37v.68h-5a2.71,2.71,0,0,0,.68,1.94,2.35,2.35,0,0,0,1.69.67,5.53,5.53,0,0,0,2.28-.5v1a8.34,8.34,0,0,1-1.1.34A4.74,4.74,0,0,1,60.15,93Zm-.34-6.59a1.56,1.56,0,0,0-1.35.6,3.07,3.07,0,0,0-.59,1.6h3.8a3,3,0,0,0-.42-1.6A1.62,1.62,0,0,0,59.81,86.4Z"/><path class="cls-2" d="M74.43,89.19A4.11,4.11,0,0,1,73.5,92a3.11,3.11,0,0,1-2.45,1,3.61,3.61,0,0,1-1.69-.42,2.8,2.8,0,0,1-1.18-1.27,4.65,4.65,0,0,1-.42-2,4.07,4.07,0,0,1,.84-2.79,3.11,3.11,0,0,1,2.45-1,3.24,3.24,0,0,1,2.45,1A3.61,3.61,0,0,1,74.43,89.19Zm-5.58,0a3.09,3.09,0,0,0,.6,2.11,1.93,1.93,0,0,0,1.6.76,1.85,1.85,0,0,0,1.61-.76,3.73,3.73,0,0,0,.59-2.11,3.16,3.16,0,0,0-.59-2.11,1.9,1.9,0,0,0-1.61-.68,2,2,0,0,0-1.6.68A3.47,3.47,0,0,0,68.85,89.19Z"/><path class="cls-2" d="M79.58,86.49H77.72v6.42H76.63V86.49H75.36V86l1.27-.42v-.42c0-1.78.76-2.71,2.36-2.71a4.16,4.16,0,0,1,1.35.26l-.25.84a2.67,2.67,0,0,0-1.1-.17,1.08,1.08,0,0,0-.93.43,2.59,2.59,0,0,0-.34,1.35v.5h1.86Z"/><path class="cls-2" d="M92.09,92.82H90.82l-5.24-8.11H85.5c.08.93.08,1.86.08,2.62v5.49h-1V83.19h1.26l5.24,8h.09A8.94,8.94,0,0,0,91.07,90a7.18,7.18,0,0,1,0-1.35V83.11h1Z"/><path class="cls-2" d="M95.63,85.64v4.74a2.11,2.11,0,0,0,.43,1.35,1.46,1.46,0,0,0,1.26.42A2.08,2.08,0,0,0,99,91.56a3.24,3.24,0,0,0,.51-2v-3.8h1.1V93h-.93l-.17-.93h-.08a3.06,3.06,0,0,1-.93.85,2.5,2.5,0,0,1-1.36.25,2.69,2.69,0,0,1-1.94-.59,2.79,2.79,0,0,1-.67-2V85.81h1.09Z"/><path class="cls-2" d="M106.19,85.48a2.79,2.79,0,0,1,.85.08l-.17,1a3.07,3.07,0,0,0-.76-.08,2.12,2.12,0,0,0-1.52.67,2.54,2.54,0,0,0-.59,1.78v3.88h-1.1V85.56h.93l.08,1.35H104a3,3,0,0,1,.93-1.1A2.19,2.19,0,0,1,106.19,85.48Z"/><path class="cls-2" d="M113.12,90.88a1.7,1.7,0,0,1-.76,1.52,3.7,3.7,0,0,1-2.11.51,5.83,5.83,0,0,1-2.28-.42v-1a6.25,6.25,0,0,0,1.1.43,5.18,5.18,0,0,0,1.18.16,3,3,0,0,0,1.35-.25c.34-.17.42-.42.42-.84a1,1,0,0,0-.34-.76,4.31,4.31,0,0,0-1.43-.68,7.62,7.62,0,0,1-1.44-.68,2.51,2.51,0,0,1-.67-.67,1.39,1.39,0,0,1-.17-.85,1.75,1.75,0,0,1,.76-1.43,2.8,2.8,0,0,1,1.94-.51,5.54,5.54,0,0,1,2.28.51l-.42.93a4.48,4.48,0,0,0-1.94-.43,2.26,2.26,0,0,0-1.19.26.86.86,0,0,0-.42.67,1.28,1.28,0,0,0,.17.51c.08.17.25.25.51.42a4.71,4.71,0,0,0,1.26.51,5.58,5.58,0,0,1,1.78.93A1.47,1.47,0,0,1,113.12,90.88Z"/><path class="cls-2" d="M114.81,83.62A1.11,1.11,0,0,1,115,83a.6.6,0,0,1,.84,0,.83.83,0,0,1,.17.5,1.14,1.14,0,0,1-.17.59c-.08.17-.25.17-.42.17a.6.6,0,0,1-.42-.17A.67.67,0,0,1,114.81,83.62Zm1.18,9.2h-1.1V85.56H116Z"/><path class="cls-2" d="M123.26,92.82V88.18a2.15,2.15,0,0,0-.42-1.35,1.46,1.46,0,0,0-1.27-.43,2,2,0,0,0-1.69.6,3.2,3.2,0,0,0-.51,2v3.8h-1.1V85.56h.93l.17,1h.09a2.94,2.94,0,0,1,.93-.84,2.44,2.44,0,0,1,1.35-.25,2.64,2.64,0,0,1,1.94.59,2.77,2.77,0,0,1,.68,2v4.73Z"/><path class="cls-2" d="M132.47,85.64v.68l-1.36.17a3.17,3.17,0,0,1,.34.59,2.38,2.38,0,0,1,.17.85,2.1,2.1,0,0,1-.76,1.68,3,3,0,0,1-2,.68,1.32,1.32,0,0,1-.59-.08,1,1,0,0,0-.67.93.47.47,0,0,0,.25.42,1.86,1.86,0,0,0,.84.17h1.27a2.85,2.85,0,0,1,1.78.5,1.76,1.76,0,0,1,.59,1.44,2.25,2.25,0,0,1-.93,1.86,5.1,5.1,0,0,1-2.79.59,4,4,0,0,1-2.2-.51,1.72,1.72,0,0,1-.76-1.52,2,2,0,0,1,.43-1.18,2.27,2.27,0,0,1,1.18-.68,2.1,2.1,0,0,1-.51-.42.8.8,0,0,1-.17-.59A1.33,1.33,0,0,1,127.4,90a2.58,2.58,0,0,1-.93-.76,2,2,0,0,1-.34-1.26,2.58,2.58,0,0,1,.68-1.86,2.88,2.88,0,0,1,2-.68,3.88,3.88,0,0,1,1,.17h2.62Zm-5.75,8.45a1.06,1.06,0,0,0,.51.93,2.43,2.43,0,0,0,1.43.34,4.07,4.07,0,0,0,2-.42,1.34,1.34,0,0,0,.68-1.1A.91.91,0,0,0,131,93a2.52,2.52,0,0,0-1.35-.25h-1.35a1.77,1.77,0,0,0-1.19.34A1.07,1.07,0,0,0,126.72,94.09Zm.59-6.16a1.47,1.47,0,0,0,1.61,1.6c1.1,0,1.6-.51,1.6-1.52s-.5-1.61-1.6-1.61a1.63,1.63,0,0,0-1.18.43A1.3,1.3,0,0,0,127.31,87.93Z"/></svg>