<svg id="Layer_1" data-name="Layer 1" xmlns="http://www.w3.org/2000/svg" viewBox="0 0 150.5 128.2"><defs><style>.cls-1{fill:#fff;}.cls-2{fill:#a6a6a6;}</style></defs><title>nursing-logo-stacked-white</title><path class="cls-1" d="M62.42,57.85H90.3v1H62.42Zm20.11-9.46a.93.93,0,0,1,1.86,0,1,1,0,0,1-.93.93.85.85,0,0,1-.93-.93m1.69,0a.76.76,0,1,0-.76.76c.42.08.76-.26.76-.76m-1.1-.51h.42c.25,0,.42.08.42.34a.22.22,0,0,1-.25.25L84,49h-.17l-.25-.51h-.08V49h-.17v-1.1Zm.17.42h.17c.08,0,.25,0,.25-.17s-.08-.17-.25-.17h-.17Zm8.45-16.22h-3.3l-.08.17L86.08,37l-2.29-4.73v-.17H80.33v2.2h.76V41h-.84v2.11h4V41h-.93V36.22l2.53,5.24.26.51.25-.51,2.53-5.24V41H88v2.11h4V41h-.85V34.28H92v-2.2Zm-19.6,9h-.93l-3-6.76h.51v-2.2H64.11v2.11h.59l-3,6.76H60.56v2.11h4.23V41H64.2l.5-1.1h3.55l.51,1.1h-.59v2.11h4.22V41h-.25Zm-4.73-3.3H65.8l.85-1.86Z"/><path class="cls-1" d="M88.19,23.72h-24v6.93h4.73V28h5V44.67H71.29V49.4h10V44.67H78.73V28h5v2.62h4.73V23.72Z"/><path class="cls-2" d="M79.4,46.61l1-1v2.79l-1-.93Zm-1.69-1-1,1V26l1,1ZM66.14,25.66l-1-1H87l-1.27,1Zm21.37,4.06-1-.93V26.25l1-1.09Z"/><path class="cls-1" d="M36.57,72.13h-.76V68H34.37v-.68H38V68H36.57Zm5.24,0h-2.7V67.31h2.7V68H39.87v1.35h1.85V70H39.87v1.52h1.94Zm4.9,0h-.93L44.6,70.18l-1.19,1.95h-.84l1.6-2.54-1.52-2.36h.85l1.1,1.85,1.09-1.85h.85L45,69.59Zm4,0-.51-1.36H48.31l-.42,1.36h-.84l1.77-4.82h.85l1.77,4.82ZM50,70.18l-.42-1.35a1.34,1.34,0,0,0-.17-.42,1,1,0,0,1-.08-.42c-.09.25-.17.59-.26.93l-.42,1.26Zm5.24.68a1.19,1.19,0,0,1-.51,1,2,2,0,0,1-1.26.34A3.16,3.16,0,0,1,52.12,72V71.2c.25.08.42.17.67.25a2.22,2.22,0,0,0,.68.08,1.37,1.37,0,0,0,.67-.16.53.53,0,0,0,.26-.51.65.65,0,0,0-.17-.42,3.65,3.65,0,0,0-.85-.43,3,3,0,0,1-.93-.59,1.39,1.39,0,0,1-.25-.84,1.1,1.1,0,0,1,.42-.93,2.2,2.2,0,0,1,1.18-.34,2.64,2.64,0,0,1,1.36.34l-.26.67a3.48,3.48,0,0,0-1.18-.25,1.28,1.28,0,0,0-.59.17c-.17.08-.17.25-.17.42A.52.52,0,0,0,53,69l.26.25a4.21,4.21,0,0,0,.67.34,2.85,2.85,0,0,1,.76.42,1.42,1.42,0,0,1,.34.43C55.24,70.44,55.24,70.6,55.24,70.86Zm6.42,1.27-.51-1.36H59.3l-.43,1.36H58l1.77-4.82h.85l1.77,4.82ZM61,70.18l-.43-1.35a1.34,1.34,0,0,0-.17-.42,1,1,0,0,1-.08-.42c-.08.25-.17.59-.25.93l-.43,1.26Zm2.11.68a2.26,2.26,0,0,1,.17-.76c.08-.26.42-.42.76-.68-.17-.25-.34-.42-.43-.59a1.14,1.14,0,0,1-.08-.51.82.82,0,0,1,.34-.76,1.68,1.68,0,0,1,.93-.25,1.53,1.53,0,0,1,.93.25.83.83,0,0,1,.33.76,1,1,0,0,1-.25.68,3,3,0,0,1-.76.59l1.18,1.1a2.87,2.87,0,0,0,.43-1h.76a4.52,4.52,0,0,1-.76,1.52l1,.93h-1l-.51-.51a2.61,2.61,0,0,1-.68.42,2.32,2.32,0,0,1-.84.17,1.61,1.61,0,0,1-1.18-.34A1.79,1.79,0,0,1,63.1,70.86Zm1.69.67a1.35,1.35,0,0,0,1-.33l-1.27-1.27c-.25.17-.42.25-.5.42s-.17.25-.17.42a.5.5,0,0,0,.25.51A1.53,1.53,0,0,0,64.79,71.53Zm-.51-3.12a.79.79,0,0,0,.08.42c.09.09.17.25.34.42.26-.17.42-.25.51-.42s.17-.25.17-.42a.47.47,0,0,0-.17-.34.67.67,0,0,0-.42-.17.7.7,0,0,0-.43.17C64.28,68.16,64.28,68.24,64.28,68.41Zm6.59,3.72-1.44-4.06c0,.59.09,1.18.09,1.69v2.37h-.68V67.31h1.1l1.35,3.8,1.35-3.8h1.1v4.82H73v-4l-1.43,4Zm10.39-4.82v3.13a1.73,1.73,0,0,1-.25.93,1.21,1.21,0,0,1-.68.59,2,2,0,0,1-1,.25,2,2,0,0,1-1.44-.51,1.7,1.7,0,0,1-.51-1.26V67.31h.76v3a1.14,1.14,0,0,0,.26.85,1.26,1.26,0,0,0,.84.25c.76,0,1.1-.42,1.1-1.18v-3h.93Zm5.58,4.82h-.93l-2.37-3.89v.25c0,.43.09.76.09,1.1v2.54H83V67.31h.93l2.36,3.8V67.23H87v4.9Zm1.6,0V67.31h.76v4.82Zm5.15-4.82h.85l-1.69,4.82H91.9l-1.68-4.82h.84l1,3a3.93,3.93,0,0,1,.17.59,1.45,1.45,0,0,1,.09.51,1.94,1.94,0,0,1,.17-.59c.08-.26.08-.42.17-.51Zm4.48,4.82h-2.7V67.31h2.7V68H96.13v1.35H98V70H96.13v1.52h1.94Zm2.2-1.86v1.94h-.76V67.39h1.35a2,2,0,0,1,1.35.34,1.14,1.14,0,0,1,.42,1A1.32,1.32,0,0,1,101.7,70l1.36,2.12h-.93l-1.19-1.95h-.67Zm0-.68h.51a1.41,1.41,0,0,0,.76-.17.8.8,0,0,0,.25-.59.67.67,0,0,0-.25-.59,1.91,1.91,0,0,0-.85-.17h-.42Zm6.67,1.27a1.21,1.21,0,0,1-.5,1,2,2,0,0,1-1.27.34,3.16,3.16,0,0,1-1.35-.25V71.2c.25.08.42.17.67.25a2.25,2.25,0,0,0,.68.08,1.34,1.34,0,0,0,.67-.16.53.53,0,0,0,.26-.51.65.65,0,0,0-.17-.42,3.44,3.44,0,0,0-.85-.43,3,3,0,0,1-.93-.59,1.46,1.46,0,0,1-.25-.84,1.1,1.1,0,0,1,.42-.93,2.21,2.21,0,0,1,1.19-.34,2.61,2.61,0,0,1,1.35.34l-.26.67a3.48,3.48,0,0,0-1.18-.25,1.28,1.28,0,0,0-.59.17c-.17.08-.17.25-.17.42a.48.48,0,0,0,.09.34l.25.25a4.21,4.21,0,0,0,.67.34,3.11,3.11,0,0,1,.77.42,1.55,1.55,0,0,1,.33.43c.09,0,.17.16.17.42Zm1.27,1.27V67.31H109v4.82Zm4.05,0h-.76V68h-1.43v-.68h3.63V68h-1.44Zm3.89-2.62,1.18-2.2h.85l-1.61,3v1.86h-.76V70.35l-1.6-3h.84Z"/><path class="cls-1" d="M24.07,79.14a3.12,3.12,0,0,0-2.54,1.1,4.09,4.09,0,0,0-.93,2.87,4.58,4.58,0,0,0,.93,3,3,3,0,0,0,2.54,1,8,8,0,0,0,2.28-.34v1a7,7,0,0,1-2.45.34,4.19,4.19,0,0,1-3.3-1.27,5.43,5.43,0,0,1-1.18-3.71A5.23,5.23,0,0,1,20,80.49a3.94,3.94,0,0,1,1.61-1.69,5.47,5.47,0,0,1,2.45-.59,5.25,5.25,0,0,1,2.62.59l-.43.84A5,5,0,0,0,24.07,79.14Zm10.47,5.15a4.08,4.08,0,0,1-.93,2.79,3.13,3.13,0,0,1-2.45,1,3.64,3.64,0,0,1-1.69-.42,2.91,2.91,0,0,1-1.18-1.27,4.81,4.81,0,0,1-.42-2,4.06,4.06,0,0,1,.84-2.78,3.13,3.13,0,0,1,2.45-1,3.22,3.22,0,0,1,2.45,1A3.5,3.5,0,0,1,34.54,84.29Zm-5.49,0a3.14,3.14,0,0,0,.59,2.11,2,2,0,0,0,1.61.76,1.84,1.84,0,0,0,1.6-.76,3.65,3.65,0,0,0,.6-2.11,3.11,3.11,0,0,0-.6-2.11,1.88,1.88,0,0,0-1.6-.68,2.05,2.05,0,0,0-1.61.68A3.54,3.54,0,0,0,29.05,84.29Zm8.53,3.55H36.49V77.62h1.09Zm3.38,0H39.87V77.62H41Zm5.41.17a3.16,3.16,0,0,1-2.53-1,3.82,3.82,0,0,1-.93-2.7,4.1,4.1,0,0,1,.84-2.79,2.9,2.9,0,0,1,2.28-1,2.61,2.61,0,0,1,2.11.93,3.44,3.44,0,0,1,.77,2.36v.68h-5a2.67,2.67,0,0,0,.68,1.94,2.36,2.36,0,0,0,1.69.68,5.54,5.54,0,0,0,2.28-.51v1a8.63,8.63,0,0,1-1.1.33,3.89,3.89,0,0,1-1.1.09Zm-.25-6.59a1.57,1.57,0,0,0-1.35.59,3.07,3.07,0,0,0-.6,1.6h3.72a3,3,0,0,0-.42-1.6A1.58,1.58,0,0,0,46.12,81.42Zm10.73-.76v.67l-1.36.17a3.17,3.17,0,0,1,.34.59,2.42,2.42,0,0,1,.17.85,2.12,2.12,0,0,1-.76,1.69,3.1,3.1,0,0,1-2,.67,1.32,1.32,0,0,1-.59-.08,1,1,0,0,0-.67.93.45.45,0,0,0,.25.42,1.73,1.73,0,0,0,.84.17h1.27a2.79,2.79,0,0,1,1.78.51,1.74,1.74,0,0,1,.59,1.43,2.25,2.25,0,0,1-.93,1.86,5.1,5.1,0,0,1-2.79.59,4.12,4.12,0,0,1-2.2-.5A1.73,1.73,0,0,1,50,89.11a2,2,0,0,1,.43-1.19,2.33,2.33,0,0,1,1.18-.67,2.43,2.43,0,0,1-.51-.43.79.79,0,0,1-.17-.59A1.33,1.33,0,0,1,51.78,85a2.69,2.69,0,0,1-.93-.76,2,2,0,0,1-.34-1.27,2.6,2.6,0,0,1,.68-1.86,2.92,2.92,0,0,1,2-.68,3.88,3.88,0,0,1,1,.17h2.62ZM51.1,89.11a1.07,1.07,0,0,0,.51.93,2.43,2.43,0,0,0,1.43.33,4.07,4.07,0,0,0,2-.42,1.33,1.33,0,0,0,.68-1.1.89.89,0,0,0-.34-.84,2.5,2.5,0,0,0-1.35-.26H52.71a1.83,1.83,0,0,0-1.19.34A1.17,1.17,0,0,0,51.1,89.11Zm.59-6.17a1.63,1.63,0,0,0,.43,1.18,1.67,1.67,0,0,0,1.18.42c1.1,0,1.6-.5,1.6-1.52a1.39,1.39,0,0,0-1.6-1.6,1.67,1.67,0,0,0-1.18.42A1.43,1.43,0,0,0,51.69,82.94ZM61.41,88a3.19,3.19,0,0,1-2.54-1,3.87,3.87,0,0,1-.93-2.7,4.1,4.1,0,0,1,.85-2.79,2.9,2.9,0,0,1,2.28-1,2.61,2.61,0,0,1,2.11.93,3.43,3.43,0,0,1,.76,2.36v.68H59a2.71,2.71,0,0,0,.67,1.94,2.4,2.4,0,0,0,1.69.68,5.54,5.54,0,0,0,2.28-.51v1a8.53,8.53,0,0,1-1.09.33,4.23,4.23,0,0,1-1.1.09Zm-.34-6.59a1.58,1.58,0,0,0-1.35.59,3,3,0,0,0-.59,1.6h3.8a3,3,0,0,0-.42-1.6A1.66,1.66,0,0,0,61.07,81.42Zm14.61,2.87a4.13,4.13,0,0,1-.92,2.79,3.16,3.16,0,0,1-2.45,1,3.58,3.58,0,0,1-1.69-.42,2.87,2.87,0,0,1-1.19-1.27A5.24,5.24,0,0,1,69,84.29a4.05,4.05,0,0,1,.85-2.79,3.13,3.13,0,0,1,2.45-1,3.28,3.28,0,0,1,2.45,1A3.76,3.76,0,0,1,75.68,84.29Zm-5.57,0a3.14,3.14,0,0,0,.59,2.11,2,2,0,0,0,1.61.76,1.85,1.85,0,0,0,1.6-.76,3.65,3.65,0,0,0,.59-2.11,3.16,3.16,0,0,0-.59-2.11,1.88,1.88,0,0,0-1.6-.68,2.05,2.05,0,0,0-1.61.68A3.47,3.47,0,0,0,70.11,84.29ZM80.84,81.5H79v6.42h-1.1V81.5H76.61V81l1.27-.43v-.42c0-1.77.76-2.7,2.37-2.7a4.18,4.18,0,0,1,1.35.25l-.26.85a2.65,2.65,0,0,0-1.09-.17,1.09,1.09,0,0,0-.93.42A2.38,2.38,0,0,0,79,80.15v.51h1.86Zm12.5,6.34H92.07l-5.23-8.11h-.09c.09.93.09,1.86.09,2.62v5.49h-1V78.21h1.27l5.24,8h.08a10.15,10.15,0,0,0-.08-1.18,6.38,6.38,0,0,1,0-1.35V78.12h1Zm3.55-7.18v4.73a2.17,2.17,0,0,0,.42,1.35c.25.34.68.42,1.27.42a2.08,2.08,0,0,0,1.69-.59,3.24,3.24,0,0,0,.51-2v-3.8h1.09V88h-.93l-.16-.93h-.09a2.93,2.93,0,0,1-.93.84,2.36,2.36,0,0,1-1.35.26,2.67,2.67,0,0,1-1.94-.59,2.77,2.77,0,0,1-.68-2V80.83h1.1Zm10.56-.17a2.69,2.69,0,0,1,.84.08l-.17,1a2.7,2.7,0,0,0-.76-.09,2.14,2.14,0,0,0-1.52.68,2.52,2.52,0,0,0-.59,1.77v3.89h-1.1V80.57h.93l.09,1.36h.08a3,3,0,0,1,.93-1.1A2.17,2.17,0,0,1,107.45,80.49Zm6.84,5.41a1.71,1.71,0,0,1-.76,1.52,3.78,3.78,0,0,1-2.11.5,5.83,5.83,0,0,1-2.28-.42v-1a6.2,6.2,0,0,0,1.1.42,5.15,5.15,0,0,0,1.18.17,2.94,2.94,0,0,0,1.35-.26c.34-.16.42-.42.42-.84a1,1,0,0,0-.33-.76,4.84,4.84,0,0,0-1.44-.68,7.75,7.75,0,0,1-1.44-.67,2.55,2.55,0,0,1-.67-.68,1.36,1.36,0,0,1-.17-.84,1.76,1.76,0,0,1,.76-1.44,2.81,2.81,0,0,1,1.94-.51,5.54,5.54,0,0,1,2.28.51l-.42.93a4.45,4.45,0,0,0-1.94-.42,2.27,2.27,0,0,0-1.19.25.87.87,0,0,0-.42.68,1.19,1.19,0,0,0,.17.5c.09.17.25.26.51.43a4.71,4.71,0,0,0,1.27.5,5.62,5.62,0,0,1,1.77.93,1.48,1.48,0,0,1,.42,1.19ZM116,78.71a1.28,1.28,0,0,1,.17-.59c.08-.17.25-.17.42-.17a.7.7,0,0,1,.43.17,1,1,0,0,1,.16.51,1.63,1.63,0,0,1-.16.59c-.09.17-.26.17-.43.17a.6.6,0,0,1-.42-.17A.72.72,0,0,1,116,78.71Zm1.27,9.13h-1.1V80.57h1.1Zm7.26,0V83.19a2.17,2.17,0,0,0-.42-1.35c-.25-.34-.67-.42-1.27-.42a2.08,2.08,0,0,0-1.69.59,3.31,3.31,0,0,0-.5,2v3.8h-1.1V80.57h.93l.17,1h.08a3.2,3.2,0,0,1,.93-.85,2.46,2.46,0,0,1,1.35-.25,2.71,2.71,0,0,1,2,.59,2.79,2.79,0,0,1,.67,2v4.73Zm9.21-7.18v.67l-1.35.17a4.91,4.91,0,0,1,.34.59,2.67,2.67,0,0,1,.17.85,2.15,2.15,0,0,1-.76,1.69,3.12,3.12,0,0,1-2,.67,1.32,1.32,0,0,1-.59-.08,1,1,0,0,0-.68.93.46.46,0,0,0,.26.42,1.7,1.7,0,0,0,.84.17h1.27a2.74,2.74,0,0,1,1.77.51,1.74,1.74,0,0,1,.59,1.43,2.25,2.25,0,0,1-.93,1.86,5.07,5.07,0,0,1-2.78.59,4.12,4.12,0,0,1-2.2-.5,1.71,1.71,0,0,1-.76-1.52,2,2,0,0,1,.42-1.19,2.37,2.37,0,0,1,1.18-.67,2.68,2.68,0,0,1-.5-.43.79.79,0,0,1-.17-.59,1.5,1.5,0,0,1,.17-.67,1.6,1.6,0,0,1,.67-.59,2.89,2.89,0,0,1-.93-.76,2.06,2.06,0,0,1-.33-1.27,2.64,2.64,0,0,1,.67-1.86,2.93,2.93,0,0,1,2-.68,3.73,3.73,0,0,1,1,.17h2.62ZM128,89.11a1.08,1.08,0,0,0,.5.93,2.46,2.46,0,0,0,1.44.33,4.07,4.07,0,0,0,2-.42,1.32,1.32,0,0,0,.67-1.1.89.89,0,0,0-.33-.84,2.54,2.54,0,0,0-1.36-.26h-1.35a1.82,1.82,0,0,0-1.18.34A1.14,1.14,0,0,0,128,89.11Zm.59-6.17a1.67,1.67,0,0,0,.42,1.18,1.68,1.68,0,0,0,1.18.42c1.1,0,1.61-.5,1.61-1.52a1.4,1.4,0,0,0-1.61-1.6,1.68,1.68,0,0,0-1.18.42A1.47,1.47,0,0,0,128.57,82.94Z"/></svg>