<svg id="Layer_1" data-name="Layer 1" xmlns="http://www.w3.org/2000/svg" viewBox="0 0 187.6 91.8"><defs><style>.cls-1{fill:#500000;}.cls-2{fill:#fff;}.cls-3{fill:#a6a6a6;}</style></defs><title>test</title><path d="M94.58,29.77a4.31,4.31,0,0,0-3.42,1.44,5.85,5.85,0,0,0-1.25,3.94,5.87,5.87,0,0,0,1.21,4,4.31,4.31,0,0,0,3.44,1.4,11.56,11.56,0,0,0,3.14-.49V41.4a9.65,9.65,0,0,1-3.37.51,5.71,5.71,0,0,1-4.48-1.76,7.22,7.22,0,0,1-1.57-5A7.94,7.94,0,0,1,89,31.59a5.43,5.43,0,0,1,2.2-2.35,6.61,6.61,0,0,1,3.37-.83,8,8,0,0,1,3.61.76l-.65,1.31A6.87,6.87,0,0,0,94.58,29.77Zm13.92,7a5.46,5.46,0,0,1-1.21,3.76,4.27,4.27,0,0,1-3.35,1.35,4.39,4.39,0,0,1-2.34-.62A4,4,0,0,1,100,39.48a6.16,6.16,0,0,1-.56-2.71,5.49,5.49,0,0,1,1.2-3.75A4.24,4.24,0,0,1,104,31.68a4.2,4.2,0,0,1,3.28,1.37A5.4,5.4,0,0,1,108.5,36.77Zm-7.5,0a4.63,4.63,0,0,0,.76,2.87,2.62,2.62,0,0,0,2.22,1,2.66,2.66,0,0,0,2.22-1,4.69,4.69,0,0,0,.76-2.87,4.57,4.57,0,0,0-.76-2.85,2.67,2.67,0,0,0-2.24-1,2.62,2.62,0,0,0-2.21,1A4.64,4.64,0,0,0,101,36.77Zm11.27,4.94h-1.49V27.77h1.49Zm4.32,0H115.1V27.77h1.49Zm7,.18a4.47,4.47,0,0,1-3.44-1.33,5.14,5.14,0,0,1-1.26-3.69,5.71,5.71,0,0,1,1.17-3.78,3.89,3.89,0,0,1,3.15-1.4,3.7,3.7,0,0,1,2.92,1.21,4.69,4.69,0,0,1,1.08,3.21v1h-6.81a3.86,3.86,0,0,0,.88,2.63,3,3,0,0,0,2.34.9,7.74,7.74,0,0,0,3.14-.67v1.33a7.21,7.21,0,0,1-3.17.64Zm-.4-9a2.45,2.45,0,0,0-1.89.77,3.52,3.52,0,0,0-.83,2.14h5.14a3.27,3.27,0,0,0-.63-2.16,2.2,2.2,0,0,0-1.79-.7Zm14.29-1v.9l-1.83.22a3,3,0,0,1,.45.82,3.19,3.19,0,0,1,.2,1.14,2.92,2.92,0,0,1-1,2.31,4,4,0,0,1-2.71.86,4.57,4.57,0,0,1-.83-.07,1.48,1.48,0,0,0-1,1.27.62.62,0,0,0,.33.59,2.36,2.36,0,0,0,1.14.2H134a3.88,3.88,0,0,1,2.45.67,2.34,2.34,0,0,1,.86,2A2.8,2.8,0,0,1,136,45.27a6.93,6.93,0,0,1-3.83.86,5.17,5.17,0,0,1-3-.72,2.32,2.32,0,0,1-1-2,2.26,2.26,0,0,1,.58-1.55,2.87,2.87,0,0,1,1.61-.89,1.62,1.62,0,0,1-.63-.53,1.46,1.46,0,0,1-.26-.84,1.61,1.61,0,0,1,.29-.94,3.09,3.09,0,0,1,.91-.78,2.75,2.75,0,0,1-1.25-1.11,3.15,3.15,0,0,1-.48-1.72,3.22,3.22,0,0,1,1-2.5,4,4,0,0,1,2.75-.87,5.41,5.41,0,0,1,1.39.18Zm-7.85,11.49a1.32,1.32,0,0,0,.67,1.21,3.6,3.6,0,0,0,1.93.42,5.45,5.45,0,0,0,2.78-.56,1.74,1.74,0,0,0,.9-1.53,1.23,1.23,0,0,0-.51-1.13,4,4,0,0,0-1.86-.31h-1.79a2.42,2.42,0,0,0-1.58.49A1.78,1.78,0,0,0,129.62,43.36Zm.81-8.34a2,2,0,0,0,.58,1.56,2.31,2.31,0,0,0,1.63.53,1.89,1.89,0,0,0,2.17-1.58,2,2,0,0,0,0-.54,2,2,0,0,0-1.75-2.22,1.77,1.77,0,0,0-.46,0,2.19,2.19,0,0,0-1.62.57,2.31,2.31,0,0,0-.6,1.68Zm12.88,6.87a4.47,4.47,0,0,1-3.44-1.33,5.14,5.14,0,0,1-1.26-3.69,5.71,5.71,0,0,1,1.17-3.78,3.89,3.89,0,0,1,3.15-1.4,3.73,3.73,0,0,1,2.93,1.21,4.74,4.74,0,0,1,1.07,3.21v1h-6.78a3.92,3.92,0,0,0,.88,2.63,3,3,0,0,0,2.34.9,7.74,7.74,0,0,0,3.14-.67v1.33a7.88,7.88,0,0,1-1.49.49A8.18,8.18,0,0,1,143.31,41.89Zm-.4-9a2.45,2.45,0,0,0-1.89.77,3.52,3.52,0,0,0-.83,2.14h5.14a3.34,3.34,0,0,0-.62-2.16,2.24,2.24,0,0,0-1.8-.7Zm19.18,3.88a5.45,5.45,0,0,1-1.22,3.76,4.27,4.27,0,0,1-3.35,1.35,4.39,4.39,0,0,1-2.34-.62,4.07,4.07,0,0,1-1.58-1.78,6.16,6.16,0,0,1-.56-2.71A5.41,5.41,0,0,1,154.25,33a4.72,4.72,0,0,1,6.62,0A5.41,5.41,0,0,1,162.09,36.77Zm-7.5,0a4.7,4.7,0,0,0,.75,2.87,3,3,0,0,0,4.44,0,4.65,4.65,0,0,0,.76-2.88,4.57,4.57,0,0,0-.76-2.85,3,3,0,0,0-4.24-.21l-.21.21A4.66,4.66,0,0,0,154.59,36.77ZM168.8,33h-2.5v8.68h-1.49V33h-1.76v-.68l1.76-.54v-.54c0-2.42,1.05-3.63,3.17-3.63a6.68,6.68,0,0,1,1.83.31l-.39,1.2a4.91,4.91,0,0,0-1.47-.28,1.48,1.48,0,0,0-1.25.56,3.14,3.14,0,0,0-.4,1.8v.64h2.5ZM99.21,65.12H97.47l-7.17-11h-.07c.09,1.3.14,2.48.14,3.56v7.46H89V52h1.72l7.16,11h.07c0-.16,0-.68-.08-1.56a8.1,8.1,0,0,1,0-1.88V52h1.42Zm4.46-9.84v6.39a2.51,2.51,0,0,0,.55,1.79,2.16,2.16,0,0,0,1.71.59,2.78,2.78,0,0,0,2.26-.84,4.22,4.22,0,0,0,.72-2.76V55.28h1.48v9.84h-1.22L109,63.77h-.08a3,3,0,0,1-1.27,1.12,4.4,4.4,0,0,1-1.86.38,3.75,3.75,0,0,1-2.69-.85,3.62,3.62,0,0,1-.89-2.65V55.28Zm14-.18a6.62,6.62,0,0,1,1.17.11l-.2,1.38a5.59,5.59,0,0,0-1.08-.13,2.61,2.61,0,0,0-2,1,3.5,3.5,0,0,0-.85,2.41v5.28h-1.53V55.28h1.23l.17,1.82h.07A4.27,4.27,0,0,1,116,55.62,3,3,0,0,1,117.72,55.1Zm9,7.34a2.47,2.47,0,0,1-1,2.12,4.88,4.88,0,0,1-2.88.74,6.09,6.09,0,0,1-3-.62V63.3a6.79,6.79,0,0,0,1.52.57,6.37,6.37,0,0,0,1.57.2,3.52,3.52,0,0,0,1.8-.37,1.29,1.29,0,0,0,.44-1.77,1.47,1.47,0,0,0-.31-.35,8.32,8.32,0,0,0-2-1,11.51,11.51,0,0,1-2-.89,2.47,2.47,0,0,1-.86-.87,2.34,2.34,0,0,1,.71-3,4.55,4.55,0,0,1,2.69-.7,8,8,0,0,1,3.1.65L126,56.93a7.13,7.13,0,0,0-2.69-.61,3.16,3.16,0,0,0-1.6.33,1,1,0,0,0-.54.92,1.07,1.07,0,0,0,.21.67,1.85,1.85,0,0,0,.65.53,13.65,13.65,0,0,0,1.72.73,6.38,6.38,0,0,1,2.38,1.27A2.28,2.28,0,0,1,126.75,62.44Zm2-9.83a1,1,0,0,1,.25-.75.87.87,0,0,1,.63-.23.89.89,0,0,1,.62.24,1.19,1.19,0,0,1,0,1.49.81.81,0,0,1-.62.25.83.83,0,0,1-.63-.25A1,1,0,0,1,128.72,52.61Zm1.67,12.51h-1.5V55.28h1.5Zm9.51,0V58.77a2.55,2.55,0,0,0-.55-1.8,2.2,2.2,0,0,0-1.71-.59,2.82,2.82,0,0,0-2.27.83,4.35,4.35,0,0,0-.71,2.76v5.16h-1.5V55.28h1.23l.24,1.35h.07A3.07,3.07,0,0,1,136,55.5a4.15,4.15,0,0,1,1.84-.4,3.74,3.74,0,0,1,2.67.86,3.62,3.62,0,0,1,.9,2.74v6.42Zm12.28-9.84v.94l-1.83.22a3.22,3.22,0,0,1,.65,2,2.88,2.88,0,0,1-1,2.3,4,4,0,0,1-2.71.87,4.47,4.47,0,0,1-.82-.08,1.48,1.48,0,0,0-1,1.27.65.65,0,0,0,.34.6,2.35,2.35,0,0,0,1.14.19h1.74a3.88,3.88,0,0,1,2.45.67,2.34,2.34,0,0,1,.86,2,2.76,2.76,0,0,1-1.31,2.49,6.93,6.93,0,0,1-3.83.86,5.17,5.17,0,0,1-3-.72,2.44,2.44,0,0,1-.42-3.55,3,3,0,0,1,1.61-.89,1.54,1.54,0,0,1-.63-.53,1.46,1.46,0,0,1-.26-.84,1.68,1.68,0,0,1,.29-.94,3.09,3.09,0,0,1,.91-.78,2.61,2.61,0,0,1-1.25-1.07,3.15,3.15,0,0,1-.48-1.72,3.19,3.19,0,0,1,1-2.49,4,4,0,0,1,2.75-.88,5.41,5.41,0,0,1,1.39.18Zm-7.85,11.49A1.35,1.35,0,0,0,145,68a3.7,3.7,0,0,0,1.93.41,5.45,5.45,0,0,0,2.78-.56,1.72,1.72,0,0,0,.91-1.52,1.19,1.19,0,0,0-.5-1.11,3.81,3.81,0,0,0-1.86-.31h-1.78a2.45,2.45,0,0,0-1.59.48A1.78,1.78,0,0,0,144.33,66.77Zm.81-8.34a2,2,0,0,0,.58,1.56,2.3,2.3,0,0,0,1.63.53,1.9,1.9,0,0,0,2.18-2.11,2,2,0,0,0-1.75-2.22,1.77,1.77,0,0,0-.46,0,2.24,2.24,0,0,0-1.62.56,2.35,2.35,0,0,0-.56,1.68Z"/><path class="cls-1" d="M18.39,17.77H72v54H18.39Z"/><path class="cls-2" d="M64.85,39.26H60.64l-.1.21-2.89,6-2.89-6-.1-.21H50.22V42h1v8.6H50.16v2.78h5.05V50.64H54.1v-6.1l3.23,6.65.33.68.33-.68,3.26-6.67v6.12H60.17v2.78h5V50.64H64.11V42h1.11V39.26ZM39.77,50.63H38.63L34.89,42h.72V39.21h-6V42h.78l-3.7,8.64H25.14v2.79h5.44V50.63h-.79l.6-1.43h4.5l.62,1.43h-.82v2.79h5.45V50.63ZM33.7,46.42H31.62l1-2.42Z"/><path class="cls-2" d="M60.28,28.46H29.56v8.93h6.07V34h6.46V55.3H38.67v6.07H51.59V55.3H48.17V34h6.42v3.39H60.7v-8.9Z"/><path class="cls-3" d="M49.06,57.79l1.28-1.32v3.62l-1.28-1.23Zm-2.13-1.22-1.28,1.26V31.45l1.28,1.28ZM32.12,31l-1.31-1.28h28L57.16,31Zm27.37,5.19L58.21,35V31.7l1.28-1.31Z"/><path class="cls-1" d="M73.87,70.7a1.08,1.08,0,0,1,2.16,0A1.07,1.07,0,0,1,75,71.77h0A1.07,1.07,0,0,1,73.87,70.7Zm1.89,0a.82.82,0,0,0-1.64.08.82.82,0,0,0,1.64-.06Zm-1.23-.62H75c.29,0,.45.1.45.36a.31.31,0,0,1-.29.33h0l.33.53h-.23l-.32-.53h-.13v.52h-.23Zm.23.52H75c.13,0,.25,0,.25-.18s-.13-.16-.25-.16h-.2Z"/></svg>