<?xml version="1.0" encoding="utf-8"?>
<!-- Generator: Adobe Illustrator 21.1.0, SVG Export Plug-In . SVG Version: 6.00 Build 0)  -->
<svg version="1.1" id="Layer_1" xmlns="http://www.w3.org/2000/svg" xmlns:xlink="http://www.w3.org/1999/xlink" x="0px" y="0px"
	 viewBox="0 0 149.9 126.7" style="enable-background:new 0 0 149.9 126.7;" xml:space="preserve">
<style type="text/css">
	.st0{fill:#500000;}
	.st1{fill:#FFFFFF;}
	.st2{fill:#A6A6A6;}
</style>
<g>
	<g>
		<rect x="55.9" y="17.6" class="st0" width="37.3" height="37.6"/>
		<g>
			<polygon class="st1" points="88.3,32.6 85.5,32.6 85.3,32.6 85.3,32.7 83.3,36.9 81.2,32.7 81.2,32.6 81,32.6 78.3,32.6 
				78.1,32.6 78.1,32.8 78.1,34.3 78.1,34.5 78.3,34.5 78.8,34.5 78.8,40.5 78.3,40.5 78,40.5 78,40.8 78,42.2 78,42.4 78.3,42.4 
				81.3,42.4 81.6,42.4 81.6,42.2 81.6,40.8 81.6,40.5 81.3,40.5 80.8,40.5 80.8,36.3 83,40.9 83.3,41.4 83.5,40.9 85.8,36.2 
				85.8,40.5 85.3,40.5 85,40.5 85,40.8 85,42.2 85,42.4 85.3,42.4 88.3,42.4 88.5,42.4 88.5,42.2 88.5,40.8 88.5,40.5 88.3,40.5 
				87.7,40.5 87.7,34.5 88.3,34.5 88.5,34.5 88.5,34.3 88.5,32.8 88.5,32.6 			"/>
			<path class="st1" d="M70.8,40.5H70l-2.6-6h0.2h0.3v-0.3v-1.4v-0.3h-0.3H64h-0.3v0.3v1.4v0.3H64h0.3l-2.6,6h-0.8h-0.3v0.3v1.4v0.3
				h0.3h3.3h0.3v-0.3v-1.4v-0.3h-0.3h-0.3l0.4-1h3.1l0.4,1h-0.3h-0.3v0.3v1.4v0.3h0.3h3.3h0.3v-0.3v-1.4v-0.3H70.8z M66.6,37.6h-1.5
				l0.7-1.7L66.6,37.6z"/>
			<polygon class="st1" points="85.1,25.1 64,25.1 63.7,25.1 63.7,25.4 63.7,31 63.7,31.3 64,31.3 67.6,31.3 67.9,31.3 67.9,31 
				67.9,28.9 72.4,28.9 72.4,43.7 70.3,43.7 70,43.7 70,44 70,47.7 70,48 70.3,48 78.7,48 79,48 79,47.7 79,44 79,43.7 78.7,43.7 
				76.7,43.7 76.7,28.9 81.1,28.9 81.1,31 81.1,31.3 81.4,31.3 85.1,31.3 85.4,31.3 85.4,31 85.4,25.4 85.4,25.1 			"/>
			<g>
				<polygon class="st2" points="77.3,45.5 78.2,44.6 78.2,47.1 77.3,46.2 				"/>
				<polygon class="st2" points="75.8,44.6 74.9,45.5 74.9,27.1 75.8,28 				"/>
				<polygon class="st2" points="65.5,26.8 64.6,25.9 84.1,25.9 82.9,26.8 				"/>
				<polygon class="st2" points="84.5,30.4 83.6,29.6 83.6,27.3 84.5,26.4 				"/>
			</g>
		</g>
	</g>
	<path class="st0" d="M94.8,54.5c0-0.4,0.3-0.7,0.7-0.7c0.4,0,0.7,0.3,0.7,0.7s-0.3,0.7-0.7,0.7C95.2,55.2,94.8,54.9,94.8,54.5z
		 M96.1,54.5c0-0.3-0.3-0.6-0.6-0.6c-0.3,0-0.6,0.3-0.6,0.6s0.3,0.6,0.6,0.6C95.9,55.1,96.1,54.8,96.1,54.5z M95.3,54h0.3
		c0.2,0,0.3,0.1,0.3,0.2c0,0.1-0.1,0.2-0.2,0.2l0.2,0.4h-0.2l-0.2-0.4h-0.1v0.4h-0.2L95.3,54L95.3,54z M95.5,54.4L95.5,54.4
		c0.2,0,0.3,0,0.3-0.1s-0.1-0.1-0.2-0.1h-0.1V54.4z"/>
	<g>
		<path class="st1" d="M33.4,73.9h-0.8v-4.3h-1.5v-0.7h3.8v0.7h-1.5V73.9z"/>
		<path class="st1" d="M38.8,73.9H36v-5h2.8v0.7h-2V71h1.9v0.7h-1.9v1.6h2V73.9z"/>
		<path class="st1" d="M43.9,73.9H43l-1.3-2l-1.3,2h-0.9l1.7-2.6l-1.6-2.4h0.9l1.2,1.9l1.2-1.9h0.9l-1.6,2.4L43.9,73.9z"/>
		<path class="st1" d="M48,73.9l-0.5-1.4h-1.9l-0.5,1.4h-0.9l1.9-5H47l1.9,5H48z M47.3,71.8l-0.5-1.4c0-0.1-0.1-0.2-0.1-0.4
			s-0.1-0.3-0.1-0.4c-0.1,0.3-0.2,0.6-0.3,0.9l-0.5,1.3H47.3z"/>
		<path class="st1" d="M52.8,72.6c0,0.4-0.2,0.8-0.5,1C52,73.9,51.6,74,51,74s-1-0.1-1.4-0.3V73c0.2,0.1,0.5,0.2,0.7,0.3
			c0.3,0.1,0.5,0.1,0.7,0.1c0.3,0,0.6-0.1,0.7-0.2c0.2-0.1,0.2-0.3,0.2-0.5s-0.1-0.3-0.2-0.5c-0.1-0.1-0.4-0.3-0.9-0.5
			s-0.8-0.4-1-0.6s-0.3-0.5-0.3-0.9s0.1-0.7,0.4-1c0.3-0.2,0.7-0.4,1.2-0.4s1,0.1,1.4,0.3l-0.3,0.7c-0.4-0.2-0.8-0.3-1.2-0.3
			c-0.3,0-0.5,0.1-0.6,0.2s-0.2,0.3-0.2,0.5c0,0.1,0,0.2,0.1,0.3c0.1,0.1,0.1,0.2,0.3,0.3c0.1,0.1,0.4,0.2,0.7,0.3
			c0.4,0.2,0.6,0.3,0.8,0.4s0.3,0.3,0.4,0.4C52.8,72.2,52.8,72.3,52.8,72.6z"/>
		<path class="st1" d="M59.4,73.9l-0.5-1.4H57l-0.5,1.4h-0.9l1.9-5h0.9l1.9,5H59.4z M58.7,71.8l-0.5-1.4c0-0.1-0.1-0.2-0.1-0.4
			C58,69.8,58,69.7,58,69.6c-0.1,0.3-0.2,0.6-0.3,0.9l-0.5,1.3H58.7z"/>
		<path class="st1" d="M60.9,72.6c0-0.3,0.1-0.6,0.2-0.8c0.1-0.2,0.4-0.4,0.8-0.7c-0.2-0.3-0.4-0.5-0.4-0.6
			c-0.1-0.2-0.1-0.4-0.1-0.5c0-0.3,0.1-0.6,0.4-0.8c0.2-0.2,0.6-0.3,1-0.3s0.7,0.1,1,0.3c0.2,0.2,0.3,0.5,0.3,0.8s-0.1,0.5-0.2,0.7
			c-0.2,0.2-0.4,0.4-0.8,0.6l1.2,1.1c0.2-0.2,0.3-0.6,0.5-1.1h0.8c-0.2,0.6-0.4,1.2-0.8,1.6l1,1h-1l-0.5-0.5
			c-0.2,0.2-0.5,0.3-0.7,0.4c-0.4,0.2-0.7,0.2-1,0.2c-0.5,0-0.9-0.1-1.2-0.4C61.1,73.4,60.9,73,60.9,72.6z M62.7,73.3
			c0.4,0,0.8-0.1,1.1-0.4l-1.3-1.3c-0.2,0.2-0.4,0.3-0.5,0.4s-0.1,0.3-0.1,0.5s0.1,0.4,0.2,0.5C62.2,73.2,62.4,73.3,62.7,73.3z
			 M62.1,70c0,0.1,0,0.3,0.1,0.4s0.2,0.3,0.3,0.4c0.3-0.1,0.4-0.3,0.5-0.4s0.2-0.3,0.2-0.4s0-0.3-0.1-0.4s-0.2-0.1-0.4-0.1
			s-0.3,0-0.4,0.1C62.2,69.7,62.1,69.9,62.1,70z"/>
		<path class="st1" d="M69,73.9l-1.4-4.2l0,0c0,0.6,0.1,1.2,0.1,1.7v2.4H67v-5h1.2l1.4,4l0,0l1.4-4h1.2v5h-0.8v-2.5c0-0.2,0-0.6,0-1
			s0-0.6,0-0.7l0,0l-1.5,4.2L69,73.9L69,73.9z"/>
		<path class="st1" d="M79.7,68.9v3.2c0,0.4-0.1,0.7-0.2,1c-0.2,0.3-0.4,0.5-0.7,0.6c-0.3,0.1-0.7,0.2-1.1,0.2
			c-0.6,0-1.1-0.2-1.4-0.5s-0.5-0.8-0.5-1.4v-3.2h0.8V72c0,0.4,0.1,0.7,0.3,0.9s0.5,0.3,0.9,0.3c0.8,0,1.2-0.4,1.2-1.2v-3.2
			L79.7,68.9L79.7,68.9z"/>
		<path class="st1" d="M85.5,73.9h-1l-2.5-4l0,0v0.2c0,0.4,0,0.8,0,1.2v2.6h-0.7v-5h1l2.5,4l0,0c0-0.1,0-0.2,0-0.6
			c0-0.3,0-0.6,0-0.8v-2.6h0.7V73.9z"/>
		<path class="st1" d="M87.2,73.9v-5H88v5H87.2z"/>
		<path class="st1" d="M92.5,68.9h0.8l-1.8,5h-0.9l-1.7-5h0.8l1,3.1c0.1,0.1,0.1,0.3,0.2,0.6C91,72.8,91,73,91,73.1
			c0-0.2,0.1-0.4,0.1-0.6c0.1-0.2,0.1-0.4,0.2-0.5L92.5,68.9z"/>
		<path class="st1" d="M97.2,73.9h-2.8v-5h2.8v0.7h-2V71H97v0.7h-1.9v1.6h2L97.2,73.9L97.2,73.9z"/>
		<path class="st1" d="M99.4,71.9v2h-0.8v-5h1.4c0.6,0,1.1,0.1,1.4,0.4c0.3,0.2,0.5,0.6,0.5,1.1c0,0.6-0.3,1.1-1,1.3l1.4,2.2h-0.9
			l-1.2-2H99.4z M99.4,71.3h0.6c0.4,0,0.7-0.1,0.8-0.2s0.3-0.4,0.3-0.6c0-0.3-0.1-0.5-0.3-0.6s-0.5-0.2-0.8-0.2h-0.5L99.4,71.3
			L99.4,71.3z"/>
		<path class="st1" d="M106.3,72.6c0,0.4-0.2,0.8-0.5,1c-0.3,0.3-0.8,0.4-1.3,0.4c-0.6,0-1-0.1-1.4-0.3V73c0.2,0.1,0.5,0.2,0.7,0.3
			c0.3,0.1,0.5,0.1,0.7,0.1c0.3,0,0.6-0.1,0.7-0.2c0.2-0.1,0.2-0.3,0.2-0.5s-0.1-0.3-0.2-0.5c-0.1-0.1-0.4-0.3-0.9-0.5
			s-0.8-0.4-1-0.6s-0.3-0.5-0.3-0.9s0.1-0.7,0.4-1c0.3-0.2,0.7-0.4,1.2-0.4s1,0.1,1.4,0.3l-0.3,0.7c-0.4-0.2-0.8-0.3-1.2-0.3
			c-0.3,0-0.5,0.1-0.6,0.2s-0.2,0.3-0.2,0.5c0,0.1,0,0.2,0.1,0.3c0.1,0.1,0.1,0.2,0.3,0.3c0.1,0.1,0.4,0.2,0.7,0.3
			c0.4,0.2,0.6,0.3,0.8,0.4s0.3,0.3,0.4,0.4C106.3,72.2,106.3,72.3,106.3,72.6z"/>
		<path class="st1" d="M107.6,73.9v-5h0.8v5H107.6z"/>
		<path class="st1" d="M111.8,73.9H111v-4.3h-1.5v-0.7h3.8v0.7h-1.5V73.9z"/>
		<path class="st1" d="M115.8,71.2l1.2-2.3h0.9l-1.7,3.1v1.9h-0.8V72l-1.7-3.1h0.9L115.8,71.2z"/>
	</g>
	<g>
		<path class="st1" d="M22.7,89.2v-8.9h1v8.9H22.7z"/>
		<path class="st1" d="M28.8,82.4c0.3,0,0.6,0,0.8,0.1l-0.1,0.9c-0.3-0.1-0.5-0.1-0.7-0.1c-0.5,0-1,0.2-1.4,0.7s-0.6,1-0.6,1.6v3.6
			h-1v-6.7h0.8l0.1,1.2l0,0c0.2-0.4,0.5-0.8,0.9-1C28,82.5,28.4,82.4,28.8,82.4z"/>
		<path class="st1" d="M39.2,89.2v-4.4c0-0.5-0.1-0.9-0.3-1.2c-0.2-0.3-0.6-0.4-1.1-0.4c-0.6,0-1.1,0.2-1.4,0.5
			c-0.3,0.4-0.5,0.9-0.5,1.7v3.7h-1v-4.4c0-0.5-0.1-0.9-0.3-1.2c-0.2-0.3-0.6-0.4-1.1-0.4c-0.6,0-1.1,0.2-1.4,0.6
			c-0.3,0.4-0.4,1-0.4,1.9v3.5h-1v-6.7h0.8l0.2,0.9l0,0c0.2-0.3,0.5-0.6,0.8-0.8c0.3-0.2,0.7-0.3,1.2-0.3c1,0,1.7,0.4,2.1,1.1l0,0
			c0.2-0.4,0.5-0.6,0.9-0.8c0.4-0.2,0.8-0.3,1.3-0.3c0.8,0,1.3,0.2,1.7,0.6s0.6,1,0.6,1.9v4.4h-1.1V89.2z"/>
		<path class="st1" d="M46.2,89.2l-0.2-1l0,0c-0.3,0.4-0.7,0.7-1,0.9c-0.3,0.1-0.7,0.2-1.2,0.2c-0.7,0-1.2-0.2-1.6-0.5
			c-0.4-0.3-0.6-0.8-0.6-1.5c0-1.4,1.1-2.1,3.2-2.1h1.1v-0.4c0-0.5-0.1-0.9-0.3-1.2s-0.6-0.4-1.1-0.4c-0.6,0-1.2,0.2-1.9,0.5
			L42.3,83c0.3-0.2,0.7-0.3,1.1-0.4s0.8-0.2,1.2-0.2c0.8,0,1.4,0.2,1.8,0.5c0.4,0.4,0.6,0.9,0.6,1.7v4.6H46.2z M43.9,88.5
			c0.6,0,1.1-0.2,1.5-0.5s0.5-0.8,0.5-1.5v-0.6h-1c-0.8,0-1.4,0.2-1.7,0.4c-0.4,0.2-0.5,0.6-0.5,1s0.1,0.6,0.3,0.8
			S43.5,88.5,43.9,88.5z"/>
		<path class="st1" d="M52,89.2v-8.9h1v8h3.9v0.9H52z"/>
		<path class="st1" d="M60.9,89.3c-1,0-1.8-0.3-2.3-0.9s-0.9-1.4-0.9-2.5s0.3-1.9,0.8-2.6c0.5-0.6,1.2-1,2.1-1c0.8,0,1.5,0.3,2,0.8
			s0.7,1.3,0.7,2.2V86h-4.6c0,0.8,0.2,1.4,0.6,1.8c0.4,0.4,0.9,0.6,1.6,0.6c0.7,0,1.4-0.2,2.1-0.5v0.9c-0.4,0.2-0.7,0.3-1,0.3
			C61.7,89.3,61.3,89.3,60.9,89.3z M60.6,83.2c-0.5,0-1,0.2-1.3,0.5c-0.3,0.4-0.5,0.8-0.6,1.5h3.5c0-0.6-0.1-1.1-0.4-1.5
			C61.5,83.4,61.1,83.2,60.6,83.2z"/>
		<path class="st1" d="M67.9,82.4c0.3,0,0.6,0,0.8,0.1l-0.1,0.9c-0.3-0.1-0.5-0.1-0.7-0.1c-0.5,0-1,0.2-1.4,0.7
			c-0.4,0.4-0.6,1-0.6,1.6v3.6h-1v-6.7h0.8l0.1,1.2l0,0c0.2-0.4,0.5-0.8,0.9-1C67.1,82.5,67.5,82.4,67.9,82.4z"/>
		<path class="st1" d="M78.3,89.2v-4.4c0-0.5-0.1-0.9-0.3-1.2c-0.2-0.3-0.6-0.4-1.1-0.4c-0.6,0-1.1,0.2-1.4,0.5
			c-0.3,0.4-0.5,0.9-0.5,1.7v3.7h-1v-4.4c0-0.5-0.1-0.9-0.3-1.2c-0.2-0.3-0.6-0.4-1.1-0.4c-0.6,0-1.1,0.2-1.4,0.6s-0.4,1-0.4,1.9
			v3.5h-1v-6.7h0.8l0.2,0.9l0,0c0.2-0.3,0.5-0.6,0.8-0.8c0.3-0.2,0.7-0.3,1.2-0.3c1,0,1.7,0.4,2.1,1.1l0,0c0.2-0.4,0.5-0.6,0.9-0.8
			c0.4-0.2,0.8-0.3,1.3-0.3c0.8,0,1.3,0.2,1.7,0.6c0.4,0.4,0.6,1,0.6,1.9v4.4h-1.1V89.2z"/>
		<path class="st1" d="M85.2,89.2l-0.2-1l0,0c-0.3,0.4-0.7,0.7-1,0.9s-0.7,0.2-1.2,0.2c-0.7,0-1.2-0.2-1.6-0.5s-0.6-0.8-0.6-1.5
			c0-1.4,1.1-2.1,3.2-2.1h1.1v-0.4c0-0.5-0.1-0.9-0.3-1.2c-0.2-0.2-0.6-0.4-1.1-0.4c-0.6,0-1.2,0.2-1.9,0.5L81.4,83
			c0.3-0.2,0.7-0.3,1.1-0.4s0.8-0.2,1.2-0.2c0.8,0,1.4,0.2,1.8,0.5c0.4,0.4,0.6,0.9,0.6,1.7v4.6H85.2z M83,88.5
			c0.6,0,1.1-0.2,1.5-0.5s0.5-0.8,0.5-1.5v-0.6h-1c-0.8,0-1.4,0.2-1.7,0.4c-0.4,0.2-0.5,0.6-0.5,1s0.1,0.6,0.3,0.8
			S82.6,88.5,83,88.5z"/>
		<path class="st1" d="M92.1,85.5v3.7h-1v-8.9h2.4c1.1,0,1.9,0.2,2.4,0.6s0.8,1,0.8,1.9c0,1.2-0.6,2-1.8,2.4l2.4,4h-1.2l-2.2-3.7
			H92.1z M92.1,84.6h1.4c0.7,0,1.3-0.1,1.6-0.4c0.3-0.3,0.5-0.7,0.5-1.3c0-0.6-0.2-1-0.5-1.3s-0.9-0.4-1.7-0.4h-1.3V84.6z"/>
		<path class="st1" d="M102.5,89.2l-0.2-1l0,0c-0.3,0.4-0.7,0.7-1,0.9s-0.7,0.2-1.2,0.2c-0.7,0-1.2-0.2-1.6-0.5s-0.6-0.8-0.6-1.5
			c0-1.4,1.1-2.1,3.2-2.1h1.1v-0.4c0-0.5-0.1-0.9-0.3-1.2c-0.2-0.2-0.6-0.4-1.1-0.4c-0.6,0-1.2,0.2-1.9,0.5L98.6,83
			c0.3-0.2,0.7-0.3,1.1-0.4s0.8-0.2,1.2-0.2c0.8,0,1.4,0.2,1.8,0.5c0.4,0.4,0.6,0.9,0.6,1.7v4.6H102.5z M100.2,88.5
			c0.6,0,1.1-0.2,1.5-0.5s0.5-0.8,0.5-1.5v-0.6h-1c-0.8,0-1.4,0.2-1.7,0.4c-0.4,0.2-0.5,0.6-0.5,1s0.1,0.6,0.3,0.8
			S99.8,88.5,100.2,88.5z"/>
		<path class="st1" d="M109.7,89.2v-4.3c0-0.5-0.1-1-0.4-1.2c-0.2-0.3-0.6-0.4-1.2-0.4c-0.7,0-1.2,0.2-1.5,0.6s-0.5,1-0.5,1.9v3.5
			h-1v-6.7h0.8l0.2,0.9l0,0c0.2-0.3,0.5-0.6,0.9-0.8c0.4-0.2,0.8-0.3,1.3-0.3c0.8,0,1.4,0.2,1.8,0.6s0.6,1,0.6,1.9v4.4L109.7,89.2
			L109.7,89.2z"/>
		<path class="st1" d="M118,82.5v0.6l-1.2,0.1c0.1,0.1,0.2,0.3,0.3,0.6c0.1,0.2,0.1,0.5,0.1,0.8c0,0.7-0.2,1.2-0.7,1.6
			c-0.4,0.4-1.1,0.6-1.8,0.6c-0.2,0-0.4,0-0.6,0c-0.4,0.2-0.6,0.5-0.6,0.9c0,0.2,0.1,0.3,0.2,0.4s0.4,0.1,0.8,0.1h1.2
			c0.7,0,1.3,0.2,1.7,0.5c0.4,0.3,0.6,0.7,0.6,1.3c0,0.7-0.3,1.3-0.9,1.7s-1.5,0.6-2.6,0.6c-0.9,0-1.5-0.2-2-0.5s-0.7-0.8-0.7-1.4
			c0-0.4,0.1-0.8,0.4-1.1c0.3-0.3,0.6-0.5,1.1-0.6c-0.2-0.1-0.3-0.2-0.4-0.4c-0.1-0.2-0.2-0.4-0.2-0.6s0.1-0.5,0.2-0.6
			c0.1-0.2,0.3-0.4,0.6-0.5c-0.3-0.1-0.6-0.4-0.8-0.7s-0.3-0.7-0.3-1.2c0-0.7,0.2-1.3,0.7-1.7s1.1-0.6,1.9-0.6c0.3,0,0.7,0,0.9,0.1
			C115.9,82.5,118,82.5,118,82.5z M112.7,90.3c0,0.4,0.2,0.6,0.5,0.8c0.3,0.2,0.7,0.3,1.3,0.3c0.9,0,1.5-0.1,1.9-0.4s0.6-0.6,0.6-1
			s-0.1-0.6-0.3-0.8c-0.2-0.1-0.6-0.2-1.3-0.2h-1.2c-0.5,0-0.8,0.1-1.1,0.3C112.8,89.6,112.7,89.9,112.7,90.3z M113.2,84.6
			c0,0.5,0.1,0.8,0.4,1.1c0.3,0.2,0.6,0.4,1.1,0.4c1,0,1.5-0.5,1.5-1.4c0-1-0.5-1.5-1.5-1.5c-0.5,0-0.8,0.1-1.1,0.4
			C113.4,83.8,113.2,84.1,113.2,84.6z"/>
		<path class="st1" d="M122,89.3c-1,0-1.8-0.3-2.3-0.9c-0.6-0.6-0.9-1.4-0.9-2.5s0.3-1.9,0.8-2.6s1.2-1,2.1-1c0.8,0,1.5,0.3,2,0.8
			s0.7,1.3,0.7,2.2V86h-4.6c0,0.8,0.2,1.4,0.6,1.8s0.9,0.6,1.6,0.6s1.4-0.2,2.1-0.5v0.9c-0.4,0.2-0.7,0.3-1,0.3
			C122.8,89.3,122.5,89.3,122,89.3z M121.7,83.2c-0.5,0-1,0.2-1.3,0.5c-0.3,0.4-0.5,0.8-0.6,1.5h3.5c0-0.6-0.1-1.1-0.4-1.5
			C122.7,83.4,122.3,83.2,121.7,83.2z"/>
		<path class="st1" d="M127,89.2h-1v-9.5h1V89.2z"/>
	</g>
	<g>
		<path class="st1" d="M22.2,97.4c-1,0-1.8,0.3-2.3,1c-0.6,0.7-0.9,1.5-0.9,2.7s0.3,2.1,0.8,2.7s1.3,1,2.3,1c0.6,0,1.3-0.1,2.1-0.3
			v0.9c-0.6,0.2-1.4,0.3-2.3,0.3c-1.3,0-2.3-0.4-3-1.2c-0.7-0.8-1.1-1.9-1.1-3.4c0-0.9,0.2-1.7,0.5-2.4c0.3-0.7,0.8-1.2,1.5-1.6
			c0.6-0.4,1.4-0.6,2.3-0.6s1.8,0.2,2.5,0.5l-0.4,0.9C23.6,97.6,22.9,97.4,22.2,97.4z"/>
		<path class="st1" d="M31.7,102.2c0,1.1-0.3,1.9-0.8,2.6c-0.5,0.6-1.3,0.9-2.3,0.9c-0.6,0-1.1-0.1-1.6-0.4s-0.8-0.7-1.1-1.2
			c-0.3-0.5-0.4-1.1-0.4-1.8c0-1.1,0.3-1.9,0.8-2.5s1.3-0.9,2.3-0.9c0.9,0,1.7,0.3,2.2,0.9C31.4,100.3,31.7,101.1,31.7,102.2z
			 M26.6,102.2c0,0.9,0.2,1.5,0.5,2s0.8,0.7,1.5,0.7s1.2-0.2,1.5-0.7c0.3-0.4,0.5-1.1,0.5-2s-0.2-1.5-0.5-1.9s-0.9-0.7-1.5-0.7
			c-0.7,0-1.2,0.2-1.5,0.7S26.6,101.3,26.6,102.2z"/>
		<path class="st1" d="M34.2,105.5h-1V96h1V105.5z"/>
		<path class="st1" d="M37.2,105.5h-1V96h1V105.5z"/>
		<path class="st1" d="M41.9,105.6c-1,0-1.8-0.3-2.3-0.9c-0.6-0.6-0.9-1.4-0.9-2.5s0.3-1.9,0.8-2.6s1.2-1,2.1-1c0.8,0,1.5,0.3,2,0.8
			s0.7,1.3,0.7,2.2v0.6h-4.6c0,0.8,0.2,1.4,0.6,1.8c0.4,0.4,0.9,0.6,1.6,0.6c0.7,0,1.4-0.2,2.1-0.5v0.9c-0.4,0.2-0.7,0.3-1,0.3
			S42.4,105.6,41.9,105.6z M41.6,99.6c-0.5,0-1,0.2-1.3,0.5s-0.5,0.8-0.6,1.5h3.5c0-0.6-0.1-1.1-0.4-1.5
			C42.6,99.7,42.2,99.6,41.6,99.6z"/>
		<path class="st1" d="M51.4,98.8v0.6l-1.2,0.1c0.1,0.1,0.2,0.3,0.3,0.6c0.1,0.2,0.1,0.5,0.1,0.8c0,0.7-0.2,1.2-0.7,1.6
			c-0.4,0.4-1.1,0.6-1.8,0.6c-0.2,0-0.4,0-0.6,0c-0.4,0.2-0.6,0.5-0.6,0.9c0,0.2,0.1,0.3,0.2,0.4c0.2,0.1,0.4,0.1,0.8,0.1H49
			c0.7,0,1.3,0.2,1.7,0.5s0.6,0.7,0.6,1.3c0,0.7-0.3,1.3-0.9,1.7s-1.5,0.6-2.6,0.6c-0.9,0-1.5-0.2-2-0.5s-0.7-0.8-0.7-1.4
			c0-0.4,0.1-0.8,0.4-1.1c0.3-0.3,0.6-0.5,1.1-0.6c-0.2-0.1-0.3-0.2-0.4-0.4S46,104.2,46,104s0.1-0.5,0.2-0.6
			c0.1-0.2,0.3-0.4,0.6-0.5c-0.3-0.1-0.6-0.4-0.8-0.7s-0.3-0.7-0.3-1.2c0-0.7,0.2-1.3,0.7-1.7c0.4-0.4,1.1-0.6,1.9-0.6
			c0.3,0,0.7,0,0.9,0.1C49.2,98.8,51.4,98.8,51.4,98.8z M46,106.6c0,0.4,0.2,0.6,0.5,0.8c0.3,0.2,0.7,0.3,1.3,0.3
			c0.9,0,1.5-0.1,1.9-0.4s0.6-0.6,0.6-1s-0.1-0.6-0.3-0.8s-0.6-0.2-1.3-0.2h-1.2c-0.5,0-0.8,0.1-1.1,0.3
			C46.2,105.9,46,106.2,46,106.6z M46.6,101c0,0.5,0.1,0.8,0.4,1.1s0.6,0.4,1.1,0.4c1,0,1.5-0.5,1.5-1.4c0-1-0.5-1.5-1.5-1.5
			c-0.5,0-0.8,0.1-1.1,0.4C46.7,100.1,46.6,100.5,46.6,101z"/>
		<path class="st1" d="M55.3,105.6c-1,0-1.8-0.3-2.3-0.9c-0.6-0.6-0.9-1.4-0.9-2.5s0.3-1.9,0.8-2.6s1.2-1,2.1-1c0.8,0,1.5,0.3,2,0.8
			s0.7,1.3,0.7,2.2v0.6h-4.6c0,0.8,0.2,1.4,0.6,1.8c0.4,0.4,0.9,0.6,1.6,0.6c0.7,0,1.4-0.2,2.1-0.5v0.9c-0.4,0.2-0.7,0.3-1,0.3
			S55.8,105.6,55.3,105.6z M55.1,99.6c-0.5,0-1,0.2-1.3,0.5s-0.5,0.8-0.6,1.5h3.5c0-0.6-0.1-1.1-0.4-1.5
			C56,99.7,55.6,99.6,55.1,99.6z"/>
		<path class="st1" d="M68.1,102.2c0,1.1-0.3,1.9-0.8,2.6c-0.5,0.6-1.3,0.9-2.3,0.9c-0.6,0-1.1-0.1-1.6-0.4s-0.8-0.7-1.1-1.2
			s-0.4-1.1-0.4-1.8c0-1.1,0.3-1.9,0.8-2.5s1.3-0.9,2.3-0.9c0.9,0,1.7,0.3,2.2,0.9C67.8,100.3,68.1,101.1,68.1,102.2z M63,102.2
			c0,0.9,0.2,1.5,0.5,2s0.8,0.7,1.5,0.7s1.2-0.2,1.5-0.7c0.3-0.4,0.5-1.1,0.5-2s-0.2-1.5-0.5-1.9s-0.9-0.7-1.5-0.7
			c-0.7,0-1.2,0.2-1.5,0.7S63,101.3,63,102.2z"/>
		<path class="st1" d="M72.7,99.6H71v5.9h-1v-5.9h-1.2v-0.5l1.2-0.4v-0.4c0-1.6,0.7-2.5,2.2-2.5c0.4,0,0.8,0.1,1.2,0.2l-0.3,1
			c-0.4-0.1-0.7-0.2-1-0.2c-0.4,0-0.7,0.1-0.8,0.4C71,97.4,71,97.8,71,98.4v0.4h1.7V99.6z"/>
		<path class="st1" d="M82.5,99.2c0,0.9-0.3,1.6-0.9,2.1S80.1,102,79,102h-1v3.5h-1v-8.9h2.3C81.4,96.6,82.5,97.5,82.5,99.2z
			 M77.9,101.1h0.9c0.9,0,1.6-0.1,2-0.4s0.6-0.8,0.6-1.4s-0.2-1-0.6-1.3s-1-0.4-1.8-0.4h-1.2L77.9,101.1L77.9,101.1z"/>
		<path class="st1" d="M88.6,105.5v-4.3c0-0.5-0.1-1-0.4-1.2s-0.6-0.4-1.2-0.4c-0.7,0-1.2,0.2-1.5,0.6s-0.5,1-0.5,1.9v3.5h-1V96h1
			v2.9c0,0.3,0,0.6,0,0.9l0,0c0.2-0.3,0.5-0.6,0.9-0.8c0.4-0.2,0.8-0.3,1.3-0.3c0.8,0,1.4,0.2,1.8,0.6s0.6,1,0.6,1.9v4.4L88.6,105.5
			L88.6,105.5z"/>
		<path class="st1" d="M95.5,105.5l-0.2-1l0,0c-0.3,0.4-0.7,0.7-1,0.9s-0.7,0.2-1.2,0.2c-0.7,0-1.2-0.2-1.6-0.5s-0.6-0.8-0.6-1.5
			c0-1.4,1.1-2.1,3.2-2.1h1.1v-0.4c0-0.5-0.1-0.9-0.3-1.2c-0.2-0.2-0.6-0.4-1.1-0.4c-0.6,0-1.2,0.2-1.9,0.5l-0.3-0.8
			c0.3-0.2,0.7-0.3,1.1-0.4s0.8-0.2,1.2-0.2c0.8,0,1.4,0.2,1.8,0.5c0.4,0.4,0.6,0.9,0.6,1.7v4.6h-0.8V105.5z M93.3,104.8
			c0.6,0,1.1-0.2,1.5-0.5s0.5-0.8,0.5-1.5v-0.6h-1c-0.8,0-1.4,0.2-1.7,0.4c-0.4,0.2-0.5,0.6-0.5,1s0.1,0.6,0.3,0.8
			S92.9,104.8,93.3,104.8z"/>
		<path class="st1" d="M101.2,98.7c0.3,0,0.6,0,0.8,0.1l-0.1,0.9c-0.3-0.1-0.5-0.1-0.7-0.1c-0.5,0-1,0.2-1.4,0.7s-0.6,1-0.6,1.6v3.6
			h-1v-6.7H99l0.1,1.2l0,0c0.2-0.4,0.5-0.8,0.9-1C100.4,98.8,100.8,98.7,101.2,98.7z"/>
		<path class="st1" d="M111.6,105.5v-4.4c0-0.5-0.1-0.9-0.3-1.2c-0.2-0.3-0.6-0.4-1.1-0.4c-0.6,0-1.1,0.2-1.4,0.5
			c-0.3,0.4-0.5,0.9-0.5,1.7v3.7h-1V101c0-0.5-0.1-0.9-0.3-1.2c-0.2-0.3-0.6-0.4-1.1-0.4c-0.6,0-1.1,0.2-1.4,0.6s-0.4,1-0.4,1.9v3.5
			h-1v-6.7h0.8l0.2,0.9l0,0c0.2-0.3,0.5-0.6,0.8-0.8c0.3-0.2,0.7-0.3,1.2-0.3c1,0,1.7,0.4,2.1,1.1l0,0c0.2-0.3,0.5-0.6,0.9-0.8
			c0.4-0.2,0.8-0.3,1.3-0.3c0.8,0,1.3,0.2,1.7,0.6c0.4,0.4,0.6,1,0.6,1.9v4.4h-1.1V105.5z"/>
		<path class="st1" d="M118.5,105.5l-0.2-1l0,0c-0.3,0.4-0.7,0.7-1,0.9c-0.3,0.1-0.7,0.2-1.2,0.2c-0.7,0-1.2-0.2-1.6-0.5
			s-0.6-0.8-0.6-1.5c0-1.4,1.1-2.1,3.2-2.1h1.1v-0.4c0-0.5-0.1-0.9-0.3-1.2c-0.2-0.2-0.6-0.4-1.1-0.4c-0.6,0-1.2,0.2-1.9,0.5
			l-0.3-0.8c0.3-0.2,0.7-0.3,1.1-0.4s0.8-0.2,1.2-0.2c0.8,0,1.4,0.2,1.8,0.5c0.4,0.4,0.6,0.9,0.6,1.7v4.6h-0.8V105.5z M116.3,104.8
			c0.6,0,1.1-0.2,1.5-0.5s0.5-0.8,0.5-1.5v-0.6h-1c-0.8,0-1.4,0.2-1.7,0.4c-0.4,0.2-0.5,0.6-0.5,1s0.1,0.6,0.3,0.8
			S115.9,104.8,116.3,104.8z"/>
		<path class="st1" d="M123.8,105.6c-1,0-1.7-0.3-2.2-0.9s-0.8-1.4-0.8-2.5s0.3-2,0.8-2.6s1.3-0.9,2.3-0.9c0.3,0,0.6,0,1,0.1
			c0.3,0.1,0.6,0.2,0.8,0.2l-0.3,0.9c-0.2-0.1-0.5-0.2-0.7-0.2c-0.3-0.1-0.5-0.1-0.7-0.1c-1.4,0-2,0.9-2,2.6c0,0.8,0.2,1.5,0.5,1.9
			s0.8,0.7,1.5,0.7c0.6,0,1.1-0.1,1.7-0.4v0.9C125.1,105.5,124.5,105.6,123.8,105.6z"/>
		<path class="st1" d="M125.8,98.8h1.1l1.5,3.8c0.3,0.9,0.5,1.5,0.6,1.9l0,0c0.1-0.2,0.2-0.6,0.3-1.1s0.7-2,1.7-4.6h1.1l-2.9,7.6
			c-0.3,0.8-0.6,1.3-1,1.6c-0.4,0.3-0.8,0.5-1.4,0.5c-0.3,0-0.6,0-0.9-0.1v-0.8c0.2,0,0.5,0.1,0.8,0.1c0.7,0,1.2-0.4,1.5-1.2l0.4-1
			L125.8,98.8z"/>
	</g>
</g>
</svg>
