<?xml version="1.0" encoding="utf-8"?>
<!-- Generator: Adobe Illustrator 22.0.1, SVG Export Plug-In . SVG Version: 6.00 Build 0)  -->
<svg version="1.1" id="Layer_1" xmlns="http://www.w3.org/2000/svg" xmlns:xlink="http://www.w3.org/1999/xlink" x="0px" y="0px"
	 viewBox="0 0 150.5 128.2" style="enable-background:new 0 0 150.5 128.2;" xml:space="preserve">
<style type="text/css">
	.st0{fill:#FFFFFF;}
	.st1{fill:#A6A6A6;}
</style>
<g>
	<g>
		<rect x="57.9" y="59" class="st0" width="33.8" height="1.2"/>
	</g>
	<g>
		<g>
			<path class="st0" d="M33.5,75.3h-0.8V71h-1.5v-0.7H35V71h-1.5V75.3z"/>
		</g>
		<g>
			<path class="st0" d="M38.9,75.3h-2.8v-5h2.8V71h-2v1.4h1.9V73h-1.9v1.6h2V75.3z"/>
		</g>
		<g>
			<path class="st0" d="M44.1,75.3h-0.9l-1.2-2l-1.3,2h-0.9l1.7-2.6l-1.6-2.4h0.9l1.2,1.9l1.2-1.9h0.9l-1.6,2.4L44.1,75.3z"/>
		</g>
		<g>
			<path class="st0" d="M48.2,75.3l-0.5-1.4h-1.9l-0.5,1.4h-0.9l1.9-5h0.9l1.9,5H48.2z M47.5,73.2L47,71.8c0-0.1-0.1-0.2-0.1-0.4
				c-0.1-0.2-0.1-0.3-0.1-0.4c-0.1,0.3-0.2,0.6-0.3,0.9L46,73.2H47.5z"/>
		</g>
		<g>
			<path class="st0" d="M52.9,73.9c0,0.4-0.2,0.8-0.5,1c-0.3,0.3-0.8,0.4-1.3,0.4s-1-0.1-1.4-0.3v-0.8c0.2,0.1,0.5,0.2,0.7,0.3
				c0.3,0.1,0.5,0.1,0.7,0.1c0.3,0,0.6-0.1,0.7-0.2c0.2-0.1,0.2-0.3,0.2-0.5c0-0.2-0.1-0.3-0.2-0.5c-0.1-0.1-0.4-0.3-0.9-0.5
				c-0.5-0.2-0.8-0.4-1-0.6c-0.2-0.2-0.3-0.5-0.3-0.9c0-0.4,0.1-0.7,0.4-1c0.3-0.2,0.7-0.4,1.2-0.4c0.5,0,1,0.1,1.4,0.3l-0.3,0.7
				c-0.4-0.2-0.8-0.3-1.2-0.3c-0.3,0-0.5,0.1-0.6,0.2c-0.1,0.1-0.2,0.3-0.2,0.5c0,0.1,0,0.2,0.1,0.3s0.1,0.2,0.3,0.3
				c0.1,0.1,0.4,0.2,0.7,0.3c0.4,0.2,0.6,0.3,0.8,0.4c0.2,0.1,0.3,0.3,0.4,0.4C52.9,73.5,52.9,73.7,52.9,73.9z"/>
		</g>
		<g>
			<path class="st0" d="M59.5,75.3L59,73.9h-1.9l-0.5,1.4h-0.9l1.9-5h0.9l1.9,5H59.5z M58.8,73.2l-0.5-1.4c0-0.1-0.1-0.2-0.1-0.4
				c-0.1-0.2-0.1-0.3-0.1-0.4c-0.1,0.3-0.2,0.6-0.3,0.9l-0.5,1.3H58.8z"/>
		</g>
		<g>
			<path class="st0" d="M61.1,73.9c0-0.3,0.1-0.6,0.2-0.8c0.1-0.2,0.4-0.4,0.8-0.7c-0.2-0.3-0.4-0.5-0.4-0.6
				c-0.1-0.2-0.1-0.4-0.1-0.5c0-0.3,0.1-0.6,0.4-0.8s0.6-0.3,1-0.3c0.4,0,0.7,0.1,1,0.3c0.2,0.2,0.3,0.5,0.3,0.8
				c0,0.3-0.1,0.5-0.2,0.7c-0.2,0.2-0.4,0.4-0.8,0.6l1.2,1.1c0.2-0.2,0.3-0.6,0.5-1.1h0.8c-0.2,0.6-0.4,1.2-0.8,1.6l1,1h-1l-0.5-0.5
				c-0.2,0.2-0.5,0.3-0.7,0.4c-0.3,0.1-0.6,0.1-0.9,0.1c-0.5,0-0.9-0.1-1.2-0.4C61.2,74.7,61.1,74.4,61.1,73.9z M62.8,74.6
				c0.4,0,0.8-0.1,1.1-0.4L62.6,73c-0.2,0.2-0.4,0.3-0.5,0.4c-0.1,0.1-0.1,0.3-0.1,0.5c0,0.2,0.1,0.4,0.2,0.5
				C62.3,74.6,62.5,74.6,62.8,74.6z M62.3,71.3c0,0.1,0,0.3,0.1,0.4c0.1,0.1,0.2,0.3,0.3,0.4c0.3-0.1,0.4-0.3,0.5-0.4
				s0.2-0.3,0.2-0.4c0-0.1,0-0.3-0.1-0.4c-0.1-0.1-0.2-0.1-0.4-0.1c-0.2,0-0.3,0-0.4,0.1C62.3,71.1,62.3,71.2,62.3,71.3z"/>
		</g>
		<g>
			<path class="st0" d="M69.1,75.3l-1.4-4.2h0c0,0.6,0.1,1.2,0.1,1.7v2.4h-0.7v-5h1.2l1.4,4h0l1.4-4h1.2v5h-0.8v-2.5
				c0-0.2,0-0.6,0-1s0-0.6,0-0.7h0l-1.5,4.2H69.1z"/>
		</g>
		<g>
			<path class="st0" d="M79.8,70.3v3.2c0,0.4-0.1,0.7-0.2,1s-0.4,0.5-0.7,0.6c-0.3,0.1-0.7,0.2-1.1,0.2c-0.6,0-1.1-0.2-1.4-0.5
				c-0.3-0.3-0.5-0.8-0.5-1.4v-3.2h0.8v3.2c0,0.4,0.1,0.7,0.3,0.9c0.2,0.2,0.5,0.3,0.9,0.3c0.8,0,1.2-0.4,1.2-1.2v-3.2H79.8z"/>
		</g>
		<g>
			<path class="st0" d="M85.6,75.3h-1l-2.5-4h0l0,0.2c0,0.4,0,0.8,0,1.2v2.6h-0.7v-5h1l2.5,4h0c0-0.1,0-0.2,0-0.6c0-0.3,0-0.6,0-0.8
				v-2.6h0.7V75.3z"/>
		</g>
		<g>
			<path class="st0" d="M87.3,75.3v-5h0.8v5H87.3z"/>
		</g>
		<g>
			<path class="st0" d="M92.6,70.3h0.8l-1.8,5h-0.9l-1.7-5H90l1,3.1c0.1,0.1,0.1,0.3,0.2,0.6c0.1,0.2,0.1,0.4,0.1,0.5
				c0-0.2,0.1-0.4,0.1-0.6c0.1-0.2,0.1-0.4,0.2-0.5L92.6,70.3z"/>
		</g>
		<g>
			<path class="st0" d="M97.3,75.3h-2.8v-5h2.8V71h-2v1.4h1.9V73h-1.9v1.6h2V75.3z"/>
		</g>
		<g>
			<path class="st0" d="M99.6,73.3v2h-0.8v-5h1.4c0.6,0,1.1,0.1,1.4,0.4c0.3,0.2,0.5,0.6,0.5,1.1c0,0.6-0.3,1.1-1,1.3l1.4,2.2h-0.9
				l-1.2-2H99.6z M99.6,72.6h0.6c0.4,0,0.7-0.1,0.8-0.2c0.2-0.1,0.3-0.4,0.3-0.6c0-0.3-0.1-0.5-0.3-0.6s-0.5-0.2-0.8-0.2h-0.5V72.6z
				"/>
		</g>
		<g>
			<path class="st0" d="M106.4,73.9c0,0.4-0.2,0.8-0.5,1c-0.3,0.3-0.8,0.4-1.3,0.4s-1-0.1-1.4-0.3v-0.8c0.2,0.1,0.5,0.2,0.7,0.3
				c0.3,0.1,0.5,0.1,0.7,0.1c0.3,0,0.6-0.1,0.7-0.2c0.2-0.1,0.2-0.3,0.2-0.5c0-0.2-0.1-0.3-0.2-0.5c-0.1-0.1-0.4-0.3-0.9-0.5
				c-0.5-0.2-0.8-0.4-1-0.6c-0.2-0.2-0.3-0.5-0.3-0.9c0-0.4,0.1-0.7,0.4-1c0.3-0.2,0.7-0.4,1.2-0.4c0.5,0,1,0.1,1.4,0.3l-0.3,0.7
				c-0.4-0.2-0.8-0.3-1.2-0.3c-0.3,0-0.5,0.1-0.6,0.2c-0.1,0.1-0.2,0.3-0.2,0.5c0,0.1,0,0.2,0.1,0.3s0.1,0.2,0.3,0.3
				c0.1,0.1,0.4,0.2,0.7,0.3c0.4,0.2,0.6,0.3,0.8,0.4c0.2,0.1,0.3,0.3,0.4,0.4C106.4,73.5,106.4,73.7,106.4,73.9z"/>
		</g>
		<g>
			<path class="st0" d="M107.8,75.3v-5h0.8v5H107.8z"/>
		</g>
		<g>
			<path class="st0" d="M112,75.3h-0.8V71h-1.5v-0.7h3.8V71H112V75.3z"/>
		</g>
		<g>
			<path class="st0" d="M116,72.5l1.2-2.3h0.9l-1.7,3.1v1.9h-0.8v-1.9l-1.7-3.1h0.9L116,72.5z"/>
		</g>
	</g>
	<g>
		<g>
			<path class="st0" d="M22.8,90.5v-8.9h1v8.9H22.8z"/>
		</g>
		<g>
			<path class="st0" d="M29,83.7c0.3,0,0.6,0,0.8,0.1l-0.1,0.9c-0.3-0.1-0.5-0.1-0.7-0.1c-0.5,0-1,0.2-1.4,0.7s-0.6,1-0.6,1.6v3.6
				h-1v-6.7h0.8l0.1,1.2h0c0.2-0.4,0.5-0.8,0.9-1C28.2,83.8,28.5,83.7,29,83.7z"/>
		</g>
		<g>
			<path class="st0" d="M39.3,90.5v-4.4c0-0.5-0.1-0.9-0.3-1.2c-0.2-0.3-0.6-0.4-1.1-0.4c-0.6,0-1.1,0.2-1.4,0.5
				c-0.3,0.4-0.5,0.9-0.5,1.7v3.7h-1v-4.4c0-0.5-0.1-0.9-0.3-1.2c-0.2-0.3-0.6-0.4-1.1-0.4c-0.6,0-1.1,0.2-1.4,0.6
				c-0.3,0.4-0.4,1-0.4,1.9v3.5h-1v-6.7h0.8l0.2,0.9h0c0.2-0.3,0.5-0.6,0.8-0.8c0.3-0.2,0.7-0.3,1.2-0.3c1,0,1.7,0.4,2.1,1.1h0
				c0.2-0.4,0.5-0.6,0.9-0.8s0.8-0.3,1.3-0.3c0.8,0,1.3,0.2,1.7,0.6c0.4,0.4,0.6,1,0.6,1.9v4.4H39.3z"/>
		</g>
		<g>
			<path class="st0" d="M46.3,90.5l-0.2-1h0c-0.3,0.4-0.7,0.7-1,0.9c-0.3,0.1-0.7,0.2-1.2,0.2c-0.7,0-1.2-0.2-1.6-0.5
				c-0.4-0.3-0.6-0.8-0.6-1.5c0-1.4,1.1-2.1,3.2-2.1l1.1,0v-0.4c0-0.5-0.1-0.9-0.3-1.2s-0.6-0.4-1.1-0.4c-0.6,0-1.2,0.2-1.9,0.5
				l-0.3-0.8c0.3-0.2,0.7-0.3,1.1-0.4c0.4-0.1,0.8-0.2,1.2-0.2c0.8,0,1.4,0.2,1.8,0.5c0.4,0.4,0.6,0.9,0.6,1.7v4.6H46.3z M44,89.8
				c0.6,0,1.1-0.2,1.5-0.5c0.4-0.3,0.5-0.8,0.5-1.5v-0.6l-1,0c-0.8,0-1.4,0.2-1.7,0.4c-0.4,0.2-0.5,0.6-0.5,1c0,0.4,0.1,0.6,0.3,0.8
				C43.3,89.7,43.6,89.8,44,89.8z"/>
		</g>
		<g>
			<path class="st0" d="M52.1,90.5v-8.9h1v8h3.9v0.9H52.1z"/>
		</g>
		<g>
			<path class="st0" d="M61,90.6c-1,0-1.8-0.3-2.3-0.9c-0.6-0.6-0.9-1.4-0.9-2.5c0-1.1,0.3-1.9,0.8-2.6c0.5-0.6,1.2-1,2.1-1
				c0.8,0,1.5,0.3,2,0.8c0.5,0.6,0.7,1.3,0.7,2.2v0.6h-4.6c0,0.8,0.2,1.4,0.6,1.8c0.4,0.4,0.9,0.6,1.6,0.6c0.7,0,1.4-0.2,2.1-0.5
				v0.9c-0.4,0.2-0.7,0.3-1,0.3C61.9,90.6,61.5,90.6,61,90.6z M60.8,84.6c-0.5,0-1,0.2-1.3,0.5c-0.3,0.4-0.5,0.8-0.6,1.5h3.5
				c0-0.6-0.1-1.1-0.4-1.5C61.7,84.7,61.3,84.6,60.8,84.6z"/>
		</g>
		<g>
			<path class="st0" d="M68,83.7c0.3,0,0.6,0,0.8,0.1l-0.1,0.9c-0.3-0.1-0.5-0.1-0.7-0.1c-0.5,0-1,0.2-1.4,0.7s-0.6,1-0.6,1.6v3.6
				h-1v-6.7h0.8l0.1,1.2h0c0.2-0.4,0.5-0.8,0.9-1C67.2,83.8,67.6,83.7,68,83.7z"/>
		</g>
		<g>
			<path class="st0" d="M78.4,90.5v-4.4c0-0.5-0.1-0.9-0.3-1.2c-0.2-0.3-0.6-0.4-1.1-0.4c-0.6,0-1.1,0.2-1.4,0.5
				c-0.3,0.4-0.5,0.9-0.5,1.7v3.7h-1v-4.4c0-0.5-0.1-0.9-0.3-1.2c-0.2-0.3-0.6-0.4-1.1-0.4c-0.6,0-1.1,0.2-1.4,0.6
				c-0.3,0.4-0.4,1-0.4,1.9v3.5h-1v-6.7h0.8l0.2,0.9h0c0.2-0.3,0.5-0.6,0.8-0.8c0.3-0.2,0.7-0.3,1.2-0.3c1,0,1.7,0.4,2.1,1.1h0
				c0.2-0.4,0.5-0.6,0.9-0.8s0.8-0.3,1.3-0.3c0.8,0,1.3,0.2,1.7,0.6c0.4,0.4,0.6,1,0.6,1.9v4.4H78.4z"/>
		</g>
		<g>
			<path class="st0" d="M85.4,90.5l-0.2-1h0c-0.3,0.4-0.7,0.7-1,0.9c-0.3,0.1-0.7,0.2-1.2,0.2c-0.7,0-1.2-0.2-1.6-0.5
				c-0.4-0.3-0.6-0.8-0.6-1.5c0-1.4,1.1-2.1,3.2-2.1l1.1,0v-0.4c0-0.5-0.1-0.9-0.3-1.2s-0.6-0.4-1.1-0.4c-0.6,0-1.2,0.2-1.9,0.5
				l-0.3-0.8c0.3-0.2,0.7-0.3,1.1-0.4c0.4-0.1,0.8-0.2,1.2-0.2c0.8,0,1.4,0.2,1.8,0.5c0.4,0.4,0.6,0.9,0.6,1.7v4.6H85.4z M83.1,89.8
				c0.6,0,1.1-0.2,1.5-0.5c0.4-0.3,0.5-0.8,0.5-1.5v-0.6l-1,0c-0.8,0-1.4,0.2-1.7,0.4c-0.4,0.2-0.5,0.6-0.5,1c0,0.4,0.1,0.6,0.3,0.8
				C82.4,89.7,82.7,89.8,83.1,89.8z"/>
		</g>
		<g>
			<path class="st0" d="M92.2,86.8v3.7h-1v-8.9h2.4c1.1,0,1.9,0.2,2.4,0.6c0.5,0.4,0.8,1,0.8,1.9c0,1.2-0.6,2-1.8,2.4l2.4,4h-1.2
				l-2.2-3.7H92.2z M92.2,85.9h1.4c0.7,0,1.3-0.1,1.6-0.4s0.5-0.7,0.5-1.3c0-0.6-0.2-1-0.5-1.3c-0.3-0.3-0.9-0.4-1.7-0.4h-1.3V85.9z
				"/>
		</g>
		<g>
			<path class="st0" d="M102.6,90.5l-0.2-1h0c-0.3,0.4-0.7,0.7-1,0.9c-0.3,0.1-0.7,0.2-1.2,0.2c-0.7,0-1.2-0.2-1.6-0.5
				c-0.4-0.3-0.6-0.8-0.6-1.5c0-1.4,1.1-2.1,3.2-2.1l1.1,0v-0.4c0-0.5-0.1-0.9-0.3-1.2s-0.6-0.4-1.1-0.4c-0.6,0-1.2,0.2-1.9,0.5
				l-0.3-0.8c0.3-0.2,0.7-0.3,1.1-0.4c0.4-0.1,0.8-0.2,1.2-0.2c0.8,0,1.4,0.2,1.8,0.5c0.4,0.4,0.6,0.9,0.6,1.7v4.6H102.6z
				 M100.3,89.8c0.6,0,1.1-0.2,1.5-0.5c0.4-0.3,0.5-0.8,0.5-1.5v-0.6l-1,0c-0.8,0-1.4,0.2-1.7,0.4c-0.4,0.2-0.5,0.6-0.5,1
				c0,0.4,0.1,0.6,0.3,0.8C99.6,89.7,99.9,89.8,100.3,89.8z"/>
		</g>
		<g>
			<path class="st0" d="M109.8,90.5v-4.3c0-0.5-0.1-1-0.4-1.2c-0.2-0.3-0.6-0.4-1.2-0.4c-0.7,0-1.2,0.2-1.5,0.6
				c-0.3,0.4-0.5,1-0.5,1.9v3.5h-1v-6.7h0.8l0.2,0.9h0c0.2-0.3,0.5-0.6,0.9-0.8c0.4-0.2,0.8-0.3,1.3-0.3c0.8,0,1.4,0.2,1.8,0.6
				s0.6,1,0.6,1.9v4.4H109.8z"/>
		</g>
		<g>
			<path class="st0" d="M118.2,83.8v0.6l-1.2,0.1c0.1,0.1,0.2,0.3,0.3,0.6c0.1,0.2,0.1,0.5,0.1,0.8c0,0.7-0.2,1.2-0.7,1.6
				s-1.1,0.6-1.8,0.6c-0.2,0-0.4,0-0.6,0c-0.4,0.2-0.6,0.5-0.6,0.9c0,0.2,0.1,0.3,0.2,0.4s0.4,0.1,0.8,0.1h1.2
				c0.7,0,1.3,0.2,1.7,0.5c0.4,0.3,0.6,0.8,0.6,1.3c0,0.7-0.3,1.3-0.9,1.7c-0.6,0.4-1.5,0.6-2.6,0.6c-0.9,0-1.5-0.2-2-0.5
				c-0.5-0.3-0.7-0.8-0.7-1.4c0-0.4,0.1-0.8,0.4-1.1c0.3-0.3,0.6-0.5,1.1-0.6c-0.2-0.1-0.3-0.2-0.4-0.4c-0.1-0.2-0.2-0.4-0.2-0.6
				c0-0.2,0.1-0.5,0.2-0.6s0.3-0.4,0.6-0.5c-0.3-0.1-0.6-0.4-0.8-0.7c-0.2-0.3-0.3-0.7-0.3-1.2c0-0.7,0.2-1.3,0.7-1.7
				s1.1-0.6,1.9-0.6c0.3,0,0.7,0,0.9,0.1H118.2z M112.8,91.7c0,0.4,0.2,0.6,0.5,0.8c0.3,0.2,0.7,0.3,1.3,0.3c0.9,0,1.5-0.1,1.9-0.4
				c0.4-0.3,0.6-0.6,0.6-1c0-0.4-0.1-0.6-0.3-0.8c-0.2-0.1-0.6-0.2-1.3-0.2h-1.2c-0.5,0-0.8,0.1-1.1,0.3
				C113,90.9,112.8,91.2,112.8,91.7z M113.4,86c0,0.5,0.1,0.8,0.4,1.1c0.3,0.2,0.6,0.4,1.1,0.4c1,0,1.5-0.5,1.5-1.4
				c0-1-0.5-1.5-1.5-1.5c-0.5,0-0.8,0.1-1.1,0.4C113.5,85.1,113.4,85.5,113.4,86z"/>
		</g>
		<g>
			<path class="st0" d="M122.1,90.6c-1,0-1.8-0.3-2.3-0.9c-0.6-0.6-0.9-1.4-0.9-2.5c0-1.1,0.3-1.9,0.8-2.6c0.5-0.6,1.2-1,2.1-1
				c0.8,0,1.5,0.3,2,0.8c0.5,0.6,0.7,1.3,0.7,2.2v0.6H120c0,0.8,0.2,1.4,0.6,1.8c0.4,0.4,0.9,0.6,1.6,0.6c0.7,0,1.4-0.2,2.1-0.5v0.9
				c-0.4,0.2-0.7,0.3-1,0.3C123,90.6,122.6,90.6,122.1,90.6z M121.9,84.6c-0.5,0-1,0.2-1.3,0.5c-0.3,0.4-0.5,0.8-0.6,1.5h3.5
				c0-0.6-0.1-1.1-0.4-1.5C122.8,84.7,122.4,84.6,121.9,84.6z"/>
		</g>
		<g>
			<path class="st0" d="M127.1,90.5h-1V81h1V90.5z"/>
		</g>
	</g>
	<g>
		<g>
			<path class="st0" d="M22.4,98.7c-1,0-1.8,0.3-2.3,1c-0.6,0.7-0.9,1.5-0.9,2.7c0,1.2,0.3,2.1,0.8,2.7c0.5,0.6,1.3,1,2.3,1
				c0.6,0,1.3-0.1,2.1-0.3v0.9c-0.6,0.2-1.4,0.3-2.3,0.3c-1.3,0-2.3-0.4-3-1.2c-0.7-0.8-1.1-1.9-1.1-3.4c0-0.9,0.2-1.7,0.5-2.4
				c0.3-0.7,0.8-1.2,1.5-1.6c0.6-0.4,1.4-0.6,2.3-0.6c0.9,0,1.8,0.2,2.5,0.5l-0.4,0.9C23.7,98.9,23,98.7,22.4,98.7z"/>
		</g>
		<g>
			<path class="st0" d="M31.8,103.5c0,1.1-0.3,1.9-0.8,2.6c-0.5,0.6-1.3,0.9-2.3,0.9c-0.6,0-1.1-0.1-1.6-0.4
				c-0.5-0.3-0.8-0.7-1.1-1.2c-0.3-0.5-0.4-1.1-0.4-1.8c0-1.1,0.3-1.9,0.8-2.5c0.5-0.6,1.3-0.9,2.3-0.9c0.9,0,1.7,0.3,2.2,0.9
				C31.5,101.6,31.8,102.5,31.8,103.5z M26.7,103.5c0,0.9,0.2,1.5,0.5,2s0.8,0.7,1.5,0.7c0.7,0,1.2-0.2,1.5-0.7
				c0.3-0.4,0.5-1.1,0.5-2c0-0.8-0.2-1.5-0.5-1.9s-0.9-0.7-1.5-0.7c-0.7,0-1.2,0.2-1.5,0.7C26.9,102,26.7,102.7,26.7,103.5z"/>
		</g>
		<g>
			<path class="st0" d="M34.4,106.9h-1v-9.5h1V106.9z"/>
		</g>
		<g>
			<path class="st0" d="M37.3,106.9h-1v-9.5h1V106.9z"/>
		</g>
		<g>
			<path class="st0" d="M42.1,107c-1,0-1.8-0.3-2.3-0.9c-0.6-0.6-0.9-1.4-0.9-2.5c0-1.1,0.3-1.9,0.8-2.6c0.5-0.6,1.2-1,2.1-1
				c0.8,0,1.5,0.3,2,0.8c0.5,0.6,0.7,1.3,0.7,2.2v0.6h-4.6c0,0.8,0.2,1.4,0.6,1.8c0.4,0.4,0.9,0.6,1.6,0.6c0.7,0,1.4-0.2,2.1-0.5
				v0.9c-0.4,0.2-0.7,0.3-1,0.3C42.9,107,42.5,107,42.1,107z M41.8,100.9c-0.5,0-1,0.2-1.3,0.5c-0.3,0.4-0.5,0.8-0.6,1.5h3.5
				c0-0.6-0.1-1.1-0.4-1.5C42.7,101.1,42.3,100.9,41.8,100.9z"/>
		</g>
		<g>
			<path class="st0" d="M51.5,100.2v0.6l-1.2,0.1c0.1,0.1,0.2,0.3,0.3,0.6c0.1,0.2,0.1,0.5,0.1,0.8c0,0.7-0.2,1.2-0.7,1.6
				s-1.1,0.6-1.8,0.6c-0.2,0-0.4,0-0.6,0c-0.4,0.2-0.6,0.5-0.6,0.9c0,0.2,0.1,0.3,0.2,0.4s0.4,0.1,0.8,0.1h1.2
				c0.7,0,1.3,0.2,1.7,0.5c0.4,0.3,0.6,0.8,0.6,1.3c0,0.7-0.3,1.3-0.9,1.7c-0.6,0.4-1.5,0.6-2.6,0.6c-0.9,0-1.5-0.2-2-0.5
				c-0.5-0.3-0.7-0.8-0.7-1.4c0-0.4,0.1-0.8,0.4-1.1c0.3-0.3,0.6-0.5,1.1-0.6c-0.2-0.1-0.3-0.2-0.4-0.4c-0.1-0.2-0.2-0.4-0.2-0.6
				c0-0.2,0.1-0.5,0.2-0.6s0.3-0.4,0.6-0.5c-0.3-0.1-0.6-0.4-0.8-0.7c-0.2-0.3-0.3-0.7-0.3-1.2c0-0.7,0.2-1.3,0.7-1.7
				s1.1-0.6,1.9-0.6c0.3,0,0.7,0,0.9,0.1H51.5z M46.2,108c0,0.4,0.2,0.6,0.5,0.8c0.3,0.2,0.7,0.3,1.3,0.3c0.9,0,1.5-0.1,1.9-0.4
				c0.4-0.3,0.6-0.6,0.6-1c0-0.4-0.1-0.6-0.3-0.8c-0.2-0.1-0.6-0.2-1.3-0.2h-1.2c-0.5,0-0.8,0.1-1.1,0.3
				C46.3,107.3,46.2,107.6,46.2,108z M46.7,102.3c0,0.5,0.1,0.8,0.4,1.1c0.3,0.2,0.6,0.4,1.1,0.4c1,0,1.5-0.5,1.5-1.4
				c0-1-0.5-1.5-1.5-1.5c-0.5,0-0.8,0.1-1.1,0.4C46.8,101.4,46.7,101.8,46.7,102.3z"/>
		</g>
		<g>
			<path class="st0" d="M55.5,107c-1,0-1.8-0.3-2.3-0.9c-0.6-0.6-0.9-1.4-0.9-2.5c0-1.1,0.3-1.9,0.8-2.6c0.5-0.6,1.2-1,2.1-1
				c0.8,0,1.5,0.3,2,0.8c0.5,0.6,0.7,1.3,0.7,2.2v0.6h-4.6c0,0.8,0.2,1.4,0.6,1.8c0.4,0.4,0.9,0.6,1.6,0.6c0.7,0,1.4-0.2,2.1-0.5
				v0.9c-0.4,0.2-0.7,0.3-1,0.3C56.3,107,55.9,107,55.5,107z M55.2,100.9c-0.5,0-1,0.2-1.3,0.5c-0.3,0.4-0.5,0.8-0.6,1.5h3.5
				c0-0.6-0.1-1.1-0.4-1.5C56.1,101.1,55.7,100.9,55.2,100.9z"/>
		</g>
		<g>
			<path class="st0" d="M68.2,103.5c0,1.1-0.3,1.9-0.8,2.6c-0.5,0.6-1.3,0.9-2.3,0.9c-0.6,0-1.1-0.1-1.6-0.4
				c-0.5-0.3-0.8-0.7-1.1-1.2c-0.3-0.5-0.4-1.1-0.4-1.8c0-1.1,0.3-1.9,0.8-2.5c0.5-0.6,1.3-0.9,2.3-0.9c0.9,0,1.7,0.3,2.2,0.9
				C68,101.6,68.2,102.5,68.2,103.5z M63.1,103.5c0,0.9,0.2,1.5,0.5,2s0.8,0.7,1.5,0.7c0.7,0,1.2-0.2,1.5-0.7c0.3-0.4,0.5-1.1,0.5-2
				c0-0.8-0.2-1.5-0.5-1.9s-0.9-0.7-1.5-0.7c-0.7,0-1.2,0.2-1.5,0.7C63.3,102,63.1,102.7,63.1,103.5z"/>
		</g>
		<g>
			<path class="st0" d="M72.8,101h-1.7v5.9h-1V101h-1.2v-0.5l1.2-0.4v-0.4c0-1.6,0.7-2.5,2.2-2.5c0.4,0,0.8,0.1,1.2,0.2l-0.3,0.8
				c-0.4-0.1-0.7-0.2-1-0.2c-0.4,0-0.7,0.1-0.8,0.4c-0.2,0.3-0.3,0.7-0.3,1.2v0.4h1.7V101z"/>
		</g>
		<g>
			<path class="st0" d="M82.6,100.5c0,0.9-0.3,1.6-0.9,2.1s-1.5,0.7-2.6,0.7h-1v3.5h-1v-8.9h2.3C81.5,97.9,82.6,98.8,82.6,100.5z
				 M78,102.5h0.9c0.9,0,1.6-0.1,2-0.4s0.6-0.8,0.6-1.4c0-0.6-0.2-1-0.6-1.3s-1-0.4-1.8-0.4H78V102.5z"/>
		</g>
		<g>
			<path class="st0" d="M88.7,106.9v-4.3c0-0.5-0.1-1-0.4-1.2c-0.2-0.3-0.6-0.4-1.2-0.4c-0.7,0-1.2,0.2-1.5,0.6
				c-0.3,0.4-0.5,1-0.5,1.9v3.5h-1v-9.5h1v2.9c0,0.3,0,0.6,0,0.9h0.1c0.2-0.3,0.5-0.6,0.9-0.8c0.4-0.2,0.8-0.3,1.3-0.3
				c0.8,0,1.4,0.2,1.8,0.6s0.6,1,0.6,1.9v4.4H88.7z"/>
		</g>
		<g>
			<path class="st0" d="M95.7,106.9l-0.2-1h0c-0.3,0.4-0.7,0.7-1,0.9c-0.3,0.1-0.7,0.2-1.2,0.2c-0.7,0-1.2-0.2-1.6-0.5
				c-0.4-0.3-0.6-0.8-0.6-1.5c0-1.4,1.1-2.1,3.2-2.1l1.1,0v-0.4c0-0.5-0.1-0.9-0.3-1.2s-0.6-0.4-1.1-0.4c-0.6,0-1.2,0.2-1.9,0.5
				l-0.3-0.8c0.3-0.2,0.7-0.3,1.1-0.4c0.4-0.1,0.8-0.2,1.2-0.2c0.8,0,1.4,0.2,1.8,0.5c0.4,0.4,0.6,0.9,0.6,1.7v4.6H95.7z
				 M93.4,106.2c0.6,0,1.1-0.2,1.5-0.5c0.4-0.3,0.5-0.8,0.5-1.5v-0.6l-1,0c-0.8,0-1.4,0.2-1.7,0.4c-0.4,0.2-0.5,0.6-0.5,1
				c0,0.4,0.1,0.6,0.3,0.8C92.7,106.1,93,106.2,93.4,106.2z"/>
		</g>
		<g>
			<path class="st0" d="M101.3,100.1c0.3,0,0.6,0,0.8,0.1l-0.1,0.9c-0.3-0.1-0.5-0.1-0.7-0.1c-0.5,0-1,0.2-1.4,0.7s-0.6,1-0.6,1.6
				v3.6h-1v-6.7h0.8l0.1,1.2h0c0.2-0.4,0.5-0.8,0.9-1C100.5,100.2,100.9,100.1,101.3,100.1z"/>
		</g>
		<g>
			<path class="st0" d="M111.7,106.9v-4.4c0-0.5-0.1-0.9-0.3-1.2c-0.2-0.3-0.6-0.4-1.1-0.4c-0.6,0-1.1,0.2-1.4,0.5
				c-0.3,0.4-0.5,0.9-0.5,1.7v3.7h-1v-4.4c0-0.5-0.1-0.9-0.3-1.2c-0.2-0.3-0.6-0.4-1.1-0.4c-0.6,0-1.1,0.2-1.4,0.6
				c-0.3,0.4-0.4,1-0.4,1.9v3.5h-1v-6.7h0.8l0.2,0.9h0c0.2-0.3,0.5-0.6,0.8-0.8c0.3-0.2,0.7-0.3,1.2-0.3c1,0,1.7,0.4,2.1,1.1h0
				c0.2-0.4,0.5-0.6,0.9-0.8s0.8-0.3,1.3-0.3c0.8,0,1.3,0.2,1.7,0.6c0.4,0.4,0.6,1,0.6,1.9v4.4H111.7z"/>
		</g>
		<g>
			<path class="st0" d="M118.7,106.9l-0.2-1h0c-0.3,0.4-0.7,0.7-1,0.9c-0.3,0.1-0.7,0.2-1.2,0.2c-0.7,0-1.2-0.2-1.6-0.5
				c-0.4-0.3-0.6-0.8-0.6-1.5c0-1.4,1.1-2.1,3.2-2.1l1.1,0v-0.4c0-0.5-0.1-0.9-0.3-1.2s-0.6-0.4-1.1-0.4c-0.6,0-1.2,0.2-1.9,0.5
				l-0.3-0.8c0.3-0.2,0.7-0.3,1.1-0.4c0.4-0.1,0.8-0.2,1.2-0.2c0.8,0,1.4,0.2,1.8,0.5c0.4,0.4,0.6,0.9,0.6,1.7v4.6H118.7z
				 M116.4,106.2c0.6,0,1.1-0.2,1.5-0.5c0.4-0.3,0.5-0.8,0.5-1.5v-0.6l-1,0c-0.8,0-1.4,0.2-1.7,0.4c-0.4,0.2-0.5,0.6-0.5,1
				c0,0.4,0.1,0.6,0.3,0.8C115.7,106.1,116,106.2,116.4,106.2z"/>
		</g>
		<g>
			<path class="st0" d="M124,107c-1,0-1.7-0.3-2.2-0.9c-0.5-0.6-0.8-1.4-0.8-2.5c0-1.1,0.3-2,0.8-2.6s1.3-0.9,2.3-0.9
				c0.3,0,0.6,0,1,0.1c0.3,0.1,0.6,0.2,0.8,0.2l-0.3,0.9c-0.2-0.1-0.5-0.2-0.7-0.2s-0.5-0.1-0.7-0.1c-1.4,0-2,0.9-2,2.6
				c0,0.8,0.2,1.5,0.5,1.9s0.8,0.7,1.5,0.7c0.6,0,1.1-0.1,1.7-0.4v0.9C125.2,106.9,124.7,107,124,107z"/>
		</g>
		<g>
			<path class="st0" d="M126,100.2h1.1l1.5,3.8c0.3,0.9,0.5,1.5,0.6,1.9h0c0.1-0.2,0.2-0.6,0.3-1.1c0.2-0.5,0.7-2,1.7-4.6h1.1
				l-2.9,7.6c-0.3,0.8-0.6,1.3-1,1.6c-0.4,0.3-0.8,0.5-1.4,0.5c-0.3,0-0.6,0-0.9-0.1V109c0.2,0,0.5,0.1,0.8,0.1
				c0.7,0,1.2-0.4,1.5-1.2l0.4-1L126,100.2z"/>
		</g>
	</g>
	<g>
		<g>
			<path class="st0" d="M82.3,47.7c0-0.6,0.5-1.2,1.2-1.2c0.6,0,1.2,0.5,1.2,1.2c0,0.6-0.5,1.2-1.2,1.2
				C82.8,48.9,82.3,48.4,82.3,47.7 M84.3,47.7c0-0.5-0.4-0.9-0.9-0.9c-0.5,0-0.9,0.4-0.9,0.9c0,0.5,0.4,0.9,0.9,0.9
				C83.9,48.7,84.3,48.3,84.3,47.7 M83,47.1h0.5c0.3,0,0.5,0.1,0.5,0.4c0,0.2-0.1,0.3-0.3,0.4l0.4,0.6h-0.3l-0.3-0.6h-0.1v0.6H83
				V47.1z M83.2,47.6h0.2c0.1,0,0.3,0,0.3-0.2c0-0.2-0.1-0.2-0.3-0.2h-0.2V47.6z"/>
		</g>
		<g>
			<g>
				<polygon class="st0" points="93.4,28 89.6,28 89.4,28 89.3,28.2 86.6,33.9 83.9,28.2 83.8,28 83.6,28 79.9,28 79.6,28 
					79.6,28.3 79.6,30.3 79.6,30.6 79.9,30.6 80.5,30.6 80.5,38.8 79.9,38.8 79.5,38.8 79.5,39.1 79.5,41 79.5,41.4 79.9,41.4 
					84,41.4 84.3,41.4 84.3,41 84.3,39.1 84.3,38.8 84,38.8 83.2,38.8 83.2,33 86.3,39.3 86.6,39.9 86.9,39.3 90,33 90,38.8 
					89.3,38.8 89,38.8 89,39.1 89,41 89,41.4 89.3,41.4 93.4,41.4 93.8,41.4 93.8,41 93.8,39.1 93.8,38.8 93.4,38.8 92.7,38.8 
					92.7,30.6 93.4,30.6 93.8,30.6 93.8,30.3 93.8,28.3 93.8,28 				"/>
			</g>
			<g>
				<path class="st0" d="M69.7,38.7h-1.1l-3.5-8.2h0.3h0.3v-0.3v-1.9V28h-0.3h-5h-0.3v0.3v1.9v0.3h0.3h0.4l-3.5,8.2h-1.1h-0.3v0.3
					V41v0.3h0.3h4.5H61V41v-1.9v-0.3h-0.3h-0.4l0.6-1.4h4.2l0.6,1.4h-0.4h-0.3v0.3V41v0.3h0.3h4.5h0.3V41v-1.9v-0.3H69.7z M64,34.8
					h-2l1-2.3L64,34.8z"/>
			</g>
			<g>
				<polygon class="st0" points="89.1,17.8 60.5,17.8 60.1,17.8 60.1,18.2 60.1,25.8 60.1,26.2 60.5,26.2 65.4,26.2 65.8,26.2 
					65.8,25.8 65.8,23 71.9,23 71.9,43.2 69.1,43.2 68.7,43.2 68.7,43.6 68.7,48.5 68.7,48.9 69.1,48.9 80.5,48.9 80.9,48.9 
					80.9,48.5 80.9,43.6 80.9,43.2 80.5,43.2 77.6,43.2 77.6,23 83.7,23 83.7,25.8 83.7,26.2 84.1,26.2 89.1,26.2 89.5,26.2 
					89.5,25.8 89.5,18.2 89.5,17.8 				"/>
			</g>
			<g>
				<g>
					<polygon class="st1" points="78.5,45.5 79.7,44.3 79.7,47.7 78.5,46.5 					"/>
				</g>
				<g>
					<polygon class="st1" points="76.5,44.4 75.3,45.5 75.3,20.6 76.5,21.8 					"/>
				</g>
				<g>
					<polygon class="st1" points="62.5,20.2 61.2,19 87.7,19 86.1,20.2 					"/>
				</g>
				<g>
					<polygon class="st1" points="88.3,25.1 87.1,23.9 87.1,20.9 88.3,19.6 					"/>
				</g>
			</g>
		</g>
	</g>
</g>
</svg>
