<?xml version="1.0" encoding="utf-8"?>
<!-- Generator: Adobe Illustrator 22.0.1, SVG Export Plug-In . SVG Version: 6.00 Build 0)  -->
<svg version="1.1" id="Layer_1" xmlns="http://www.w3.org/2000/svg" xmlns:xlink="http://www.w3.org/1999/xlink" x="0px" y="0px"
	 viewBox="0 0 187.6 91.8" style="enable-background:new 0 0 187.6 91.8;" xml:space="preserve">
<style type="text/css">
	.st0{fill:#500000;}
	.st1{fill:#FFFFFF;}
	.st2{fill:#A6A6A6;}
</style>
<g>
	<g>
		<g>
			<path d="M93.8,31.5c-1.4,0-2.6,0.5-3.4,1.4c-0.8,1-1.3,2.3-1.3,3.9c0,1.7,0.4,3,1.2,4c0.8,0.9,2,1.4,3.4,1.4c0.9,0,2-0.2,3.1-0.5
				v1.3c-0.9,0.3-2,0.5-3.4,0.5c-1.9,0-3.4-0.6-4.5-1.8c-1.1-1.2-1.6-2.8-1.6-5c0-1.4,0.3-2.5,0.8-3.6s1.2-1.8,2.2-2.4
				s2.1-0.8,3.4-0.8c1.4,0,2.6,0.3,3.6,0.8l-0.6,1.3C95.8,31.7,94.8,31.5,93.8,31.5z"/>
		</g>
		<g>
			<path d="M107.7,38.5c0,1.6-0.4,2.9-1.2,3.8s-1.9,1.4-3.3,1.4c-0.9,0-1.7-0.2-2.3-0.6s-1.2-1-1.6-1.8c-0.4-0.8-0.6-1.7-0.6-2.7
				c0-1.6,0.4-2.9,1.2-3.8c0.8-0.9,1.9-1.3,3.3-1.3c1.4,0,2.5,0.5,3.3,1.4C107.3,35.7,107.7,36.9,107.7,38.5z M100.2,38.5
				c0,1.3,0.3,2.2,0.8,2.9c0.5,0.7,1.2,1,2.2,1s1.7-0.3,2.2-1s0.8-1.6,0.8-2.9c0-1.3-0.3-2.2-0.8-2.9s-1.3-1-2.2-1
				c-1,0-1.7,0.3-2.2,1S100.2,37.2,100.2,38.5z"/>
		</g>
		<g>
			<path d="M111.5,43.4H110v-14h1.5V43.4z"/>
		</g>
		<g>
			<path d="M115.8,43.4h-1.5v-14h1.5V43.4z"/>
		</g>
		<g>
			<path d="M122.8,43.6c-1.5,0-2.6-0.4-3.4-1.3c-0.8-0.9-1.3-2.1-1.3-3.7c0-1.6,0.4-2.8,1.2-3.8c0.8-0.9,1.8-1.4,3.1-1.4
				c1.2,0,2.2,0.4,2.9,1.2c0.7,0.8,1.1,1.9,1.1,3.2v0.9h-6.8c0,1.2,0.3,2,0.9,2.6s1.3,0.9,2.3,0.9c1.1,0,2.1-0.2,3.1-0.7V43
				c-0.5,0.2-1,0.4-1.5,0.5C124,43.5,123.4,43.6,122.8,43.6z M122.4,34.6c-0.8,0-1.4,0.3-1.9,0.8c-0.5,0.5-0.7,1.2-0.8,2.1h5.1
				c0-0.9-0.2-1.7-0.6-2.2S123.1,34.6,122.4,34.6z"/>
		</g>
		<g>
			<path d="M136.7,33.6v0.9l-1.8,0.2c0.2,0.2,0.3,0.5,0.4,0.8c0.1,0.3,0.2,0.7,0.2,1.1c0,1-0.3,1.7-1,2.3c-0.7,0.6-1.6,0.9-2.7,0.9
				c-0.3,0-0.6,0-0.8-0.1c-0.6,0.3-1,0.8-1,1.3c0,0.3,0.1,0.5,0.3,0.6s0.6,0.2,1.1,0.2h1.7c1.1,0,1.9,0.2,2.5,0.7
				c0.6,0.4,0.9,1.1,0.9,2c0,1.1-0.4,1.9-1.3,2.5c-0.9,0.6-2.1,0.9-3.8,0.9c-1.3,0-2.3-0.2-3-0.7c-0.7-0.5-1-1.2-1-2
				c0-0.6,0.2-1.1,0.6-1.6c0.4-0.4,0.9-0.7,1.6-0.9c-0.3-0.1-0.5-0.3-0.6-0.5s-0.3-0.5-0.3-0.8c0-0.4,0.1-0.7,0.3-0.9
				s0.5-0.5,0.9-0.8c-0.5-0.2-0.9-0.6-1.2-1.1s-0.5-1.1-0.5-1.7c0-1.1,0.3-1.9,1-2.5c0.6-0.6,1.6-0.9,2.7-0.9c0.5,0,1,0.1,1.4,0.2
				H136.7z M128.8,45.1c0,0.5,0.2,0.9,0.7,1.2c0.4,0.3,1.1,0.4,1.9,0.4c1.3,0,2.2-0.2,2.8-0.6c0.6-0.4,0.9-0.9,0.9-1.5
				c0-0.5-0.2-0.9-0.5-1.1c-0.3-0.2-0.9-0.3-1.9-0.3H131c-0.7,0-1.2,0.2-1.6,0.5S128.8,44.5,128.8,45.1z M129.6,36.7
				c0,0.7,0.2,1.2,0.6,1.6c0.4,0.4,0.9,0.5,1.6,0.5c1.5,0,2.2-0.7,2.2-2.1c0-1.5-0.7-2.2-2.2-2.2c-0.7,0-1.2,0.2-1.6,0.6
				C129.8,35.4,129.6,36,129.6,36.7z"/>
		</g>
		<g>
			<path d="M142.5,43.6c-1.5,0-2.6-0.4-3.4-1.3c-0.8-0.9-1.3-2.1-1.3-3.7c0-1.6,0.4-2.8,1.2-3.8c0.8-0.9,1.8-1.4,3.1-1.4
				c1.2,0,2.2,0.4,2.9,1.2c0.7,0.8,1.1,1.9,1.1,3.2v0.9h-6.8c0,1.2,0.3,2,0.9,2.6s1.3,0.9,2.3,0.9c1.1,0,2.1-0.2,3.1-0.7V43
				c-0.5,0.2-1,0.4-1.5,0.5C143.7,43.5,143.2,43.6,142.5,43.6z M142.1,34.6c-0.8,0-1.4,0.3-1.9,0.8c-0.5,0.5-0.7,1.2-0.8,2.1h5.1
				c0-0.9-0.2-1.7-0.6-2.2S142.9,34.6,142.1,34.6z"/>
		</g>
		<g>
			<path d="M161.3,38.5c0,1.6-0.4,2.9-1.2,3.8s-1.9,1.4-3.3,1.4c-0.9,0-1.7-0.2-2.3-0.6s-1.2-1-1.6-1.8c-0.4-0.8-0.6-1.7-0.6-2.7
				c0-1.6,0.4-2.9,1.2-3.8c0.8-0.9,1.9-1.3,3.3-1.3c1.4,0,2.5,0.5,3.3,1.4C160.9,35.7,161.3,36.9,161.3,38.5z M153.8,38.5
				c0,1.3,0.3,2.2,0.8,2.9c0.5,0.7,1.2,1,2.2,1s1.7-0.3,2.2-1s0.8-1.6,0.8-2.9c0-1.3-0.3-2.2-0.8-2.9s-1.3-1-2.2-1
				c-1,0-1.7,0.3-2.2,1S153.8,37.2,153.8,38.5z"/>
		</g>
		<g>
			<path d="M168,34.7h-2.5v8.7H164v-8.7h-1.8v-0.7l1.8-0.5V33c0-2.4,1.1-3.6,3.2-3.6c0.5,0,1.1,0.1,1.8,0.3l-0.4,1.2
				c-0.6-0.2-1.1-0.3-1.5-0.3c-0.6,0-1,0.2-1.2,0.6s-0.4,1-0.4,1.8v0.6h2.5V34.7z"/>
		</g>
	</g>
	<g>
		<g>
			<path d="M96.5,57.5c0,1.3-0.5,2.4-1.4,3.1c-0.9,0.7-2.2,1.1-3.9,1.1h-1.5v5.2h-1.5V53.7h3.4C94.8,53.7,96.5,55,96.5,57.5z
				 M89.7,60.4h1.4c1.4,0,2.3-0.2,2.9-0.7c0.6-0.4,0.9-1.1,0.9-2.1c0-0.9-0.3-1.5-0.9-1.9c-0.6-0.4-1.5-0.6-2.7-0.6h-1.7V60.4z"/>
		</g>
		<g>
			<path d="M105.4,66.8v-6.4c0-0.8-0.2-1.4-0.5-1.8c-0.4-0.4-0.9-0.6-1.7-0.6c-1,0-1.8,0.3-2.3,0.8c-0.5,0.6-0.7,1.5-0.7,2.8v5.1
				h-1.5v-14h1.5v4.2c0,0.5,0,0.9-0.1,1.3h0.1c0.3-0.5,0.7-0.8,1.3-1.1c0.5-0.3,1.2-0.4,1.9-0.4c1.2,0,2.1,0.3,2.7,0.9
				c0.6,0.6,0.9,1.5,0.9,2.7v6.4H105.4z"/>
		</g>
		<g>
			<path d="M115.7,66.8l-0.3-1.4h-0.1c-0.5,0.6-1,1-1.5,1.3c-0.5,0.2-1.1,0.3-1.8,0.3c-1,0-1.7-0.3-2.3-0.8
				c-0.6-0.5-0.8-1.2-0.8-2.1c0-2,1.6-3,4.8-3.1l1.7-0.1v-0.6c0-0.8-0.2-1.3-0.5-1.7c-0.3-0.4-0.9-0.6-1.6-0.6
				c-0.8,0-1.7,0.3-2.8,0.8l-0.5-1.1c0.5-0.3,1-0.5,1.6-0.6c0.6-0.1,1.2-0.2,1.7-0.2c1.2,0,2,0.3,2.6,0.8c0.6,0.5,0.8,1.4,0.8,2.5
				v6.7H115.7z M112.3,65.8c0.9,0,1.7-0.3,2.2-0.8c0.5-0.5,0.8-1.2,0.8-2.1V62l-1.5,0.1c-1.2,0-2,0.2-2.6,0.6
				c-0.5,0.3-0.8,0.8-0.8,1.5c0,0.5,0.2,0.9,0.5,1.2C111.3,65.6,111.7,65.8,112.3,65.8z"/>
		</g>
		<g>
			<path d="M124,56.8c0.4,0,0.8,0,1.2,0.1l-0.2,1.4c-0.4-0.1-0.8-0.1-1.1-0.1c-0.8,0-1.5,0.3-2,1s-0.8,1.5-0.8,2.4v5.3h-1.5V57h1.2
				l0.2,1.8h0.1c0.4-0.6,0.8-1.1,1.3-1.5C122.8,57,123.4,56.8,124,56.8z"/>
		</g>
		<g>
			<path d="M139.2,66.8v-6.4c0-0.8-0.2-1.4-0.5-1.8c-0.3-0.4-0.9-0.6-1.6-0.6c-0.9,0-1.6,0.3-2.1,0.8c-0.4,0.5-0.7,1.4-0.7,2.5v5.5
				H133v-6.4c0-0.8-0.2-1.4-0.5-1.8c-0.3-0.4-0.9-0.6-1.6-0.6c-0.9,0-1.6,0.3-2.1,0.8c-0.4,0.6-0.7,1.5-0.7,2.8v5.2h-1.5V57h1.2
				l0.2,1.3h0.1c0.3-0.5,0.7-0.9,1.2-1.1c0.5-0.3,1.1-0.4,1.7-0.4c1.5,0,2.5,0.6,3,1.7h0.1c0.3-0.5,0.7-0.9,1.3-1.2
				c0.6-0.3,1.2-0.4,1.9-0.4c1.1,0,1.9,0.3,2.5,0.9c0.6,0.6,0.8,1.5,0.8,2.7v6.4H139.2z"/>
		</g>
		<g>
			<path d="M149.5,66.8l-0.3-1.4h-0.1c-0.5,0.6-1,1-1.5,1.3c-0.5,0.2-1.1,0.3-1.8,0.3c-1,0-1.7-0.3-2.3-0.8
				c-0.6-0.5-0.8-1.2-0.8-2.1c0-2,1.6-3,4.8-3.1l1.7-0.1v-0.6c0-0.8-0.2-1.3-0.5-1.7c-0.3-0.4-0.9-0.6-1.6-0.6
				c-0.8,0-1.7,0.3-2.8,0.8l-0.5-1.1c0.5-0.3,1-0.5,1.6-0.6c0.6-0.1,1.2-0.2,1.7-0.2c1.2,0,2,0.3,2.6,0.8c0.6,0.5,0.8,1.4,0.8,2.5
				v6.7H149.5z M146.2,65.8c0.9,0,1.7-0.3,2.2-0.8c0.5-0.5,0.8-1.2,0.8-2.1V62l-1.5,0.1c-1.2,0-2,0.2-2.6,0.6
				c-0.5,0.3-0.8,0.8-0.8,1.5c0,0.5,0.2,0.9,0.5,1.2C145.1,65.6,145.6,65.8,146.2,65.8z"/>
		</g>
		<g>
			<path d="M157.3,67c-1.4,0-2.5-0.4-3.3-1.3s-1.2-2.1-1.2-3.7c0-1.6,0.4-2.9,1.2-3.8s1.9-1.3,3.4-1.3c0.5,0,0.9,0.1,1.4,0.2
				s0.8,0.2,1.1,0.4l-0.5,1.3c-0.3-0.1-0.7-0.2-1.1-0.3c-0.4-0.1-0.7-0.1-1-0.1c-2,0-3,1.3-3,3.8c0,1.2,0.2,2.1,0.7,2.8
				c0.5,0.6,1.2,1,2.2,1c0.8,0,1.7-0.2,2.5-0.5v1.3C159.1,66.8,158.3,67,157.3,67z"/>
		</g>
		<g>
			<path d="M160.2,57h1.6l2.2,5.6c0.5,1.3,0.8,2.2,0.9,2.8h0.1c0.1-0.3,0.2-0.8,0.5-1.6s1.1-3,2.4-6.8h1.6l-4.2,11.2
				c-0.4,1.1-0.9,1.9-1.5,2.4c-0.6,0.5-1.2,0.7-2.1,0.7c-0.5,0-0.9-0.1-1.3-0.2v-1.2c0.3,0.1,0.7,0.1,1.1,0.1c1,0,1.8-0.6,2.2-1.7
				l0.5-1.4L160.2,57z"/>
		</g>
	</g>
	<g>
		<g>
			<rect x="18.1" y="19.5" class="st0" width="53.6" height="54"/>
		</g>
		<g>
			<g>
				<polygon class="st1" points="64.6,41 60.6,41 60.4,41 60.3,41.2 57.4,47.2 54.5,41.2 54.4,41 54.2,41 50.3,41 50,41 50,41.3 
					50,43.4 50,43.8 50.3,43.8 51,43.8 51,52.4 50.3,52.4 49.9,52.4 49.9,52.7 49.9,54.8 49.9,55.1 50.3,55.1 54.6,55.1 55,55.1 
					55,54.8 55,52.7 55,52.4 54.6,52.4 53.8,52.4 53.8,46.2 57.1,52.9 57.4,53.6 57.7,52.9 61,46.2 61,52.4 60.3,52.4 59.9,52.4 
					59.9,52.7 59.9,54.8 59.9,55.1 60.3,55.1 64.6,55.1 65,55.1 65,54.8 65,52.7 65,52.4 64.6,52.4 63.8,52.4 63.8,43.8 64.6,43.8 
					65,43.8 65,43.4 65,41.3 65,41 				"/>
			</g>
			<g>
				<path class="st1" d="M39.5,52.3h-1.1l-3.7-8.6H35h0.4v-0.4v-2.1v-0.4H35h-5.3h-0.4v0.4v2.1v0.4h0.4h0.5l-3.7,8.6h-1.2h-0.4v0.4
					v2v0.4h0.4H30h0.4v-0.4v-2v-0.4H30h-0.4l0.6-1.4h4.5l0.6,1.4h-0.5h-0.4v0.4v2v0.4h0.4h4.7h0.4v-0.4v-2v-0.4H39.5z M33.4,48.1
					h-2.1l1-2.4L33.4,48.1z"/>
			</g>
			<g>
				<polygon class="st1" points="60,30.2 29.7,30.2 29.3,30.2 29.3,30.6 29.3,38.7 29.3,39.1 29.7,39.1 34.9,39.1 35.4,39.1 
					35.4,38.7 35.4,35.7 41.8,35.7 41.8,57 38.8,57 38.4,57 38.4,57.4 38.4,62.7 38.4,63.1 38.8,63.1 50.9,63.1 51.3,63.1 
					51.3,62.7 51.3,57.4 51.3,57 50.9,57 47.9,57 47.9,35.7 54.3,35.7 54.3,38.6 54.3,39.1 54.7,39.1 60,39.1 60.4,39.1 60.4,38.6 
					60.4,30.6 60.4,30.2 				"/>
			</g>
			<g>
				<g>
					<polygon class="st2" points="48.8,59.5 50.1,58.2 50.1,61.8 48.8,60.6 					"/>
				</g>
				<g>
					<polygon class="st2" points="46.7,58.3 45.4,59.5 45.4,33.2 46.7,34.4 					"/>
				</g>
				<g>
					<polygon class="st2" points="31.9,32.7 30.5,31.4 58.5,31.4 56.9,32.7 					"/>
				</g>
				<g>
					<polygon class="st2" points="59.2,37.9 57.9,36.7 57.9,33.4 59.2,32.1 					"/>
				</g>
			</g>
		</g>
		<g>
			<path class="st0" d="M73.6,72.4c0-0.6,0.5-1.1,1.1-1.1c0.6,0,1.1,0.5,1.1,1.1c0,0.6-0.5,1.1-1.1,1.1C74.1,73.5,73.6,73,73.6,72.4
				z M75.5,72.4c0-0.5-0.4-0.9-0.8-0.9c-0.4,0-0.8,0.4-0.8,0.9c0,0.5,0.4,0.9,0.8,0.9C75.1,73.3,75.5,72.9,75.5,72.4z M74.3,71.8
				h0.5c0.3,0,0.4,0.1,0.4,0.4c0,0.2-0.1,0.3-0.3,0.3l0.3,0.5h-0.2l-0.3-0.5h-0.1V73h-0.2V71.8z M74.5,72.3h0.2c0.1,0,0.2,0,0.2-0.2
				c0-0.1-0.1-0.2-0.2-0.2h-0.2V72.3z"/>
		</g>
	</g>
</g>
</svg>
